<svg width="20" height="20" viewBox="0 0 20 20" fill="none" xmlns="http://www.w3.org/2000/svg">
<path d="M6.66602 10.166H12.4993" stroke="#060D13" stroke-width="1.5" stroke-miterlimit="10" stroke-linecap="round" stroke-linejoin="round"/>
<path d="M6.66602 13.5H10.316" stroke="#060D13" stroke-width="1.5" stroke-miterlimit="10" stroke-linecap="round" stroke-linejoin="round"/>
<path d="M8.33268 4.99935H11.666C13.3327 4.99935 13.3327 4.16602 13.3327 3.33268C13.3327 1.66602 12.4993 1.66602 11.666 1.66602H8.33268C7.49935 1.66602 6.66602 1.66602 6.66602 3.33268C6.66602 4.99935 7.49935 4.99935 8.33268 4.99935Z" stroke="#060D13" stroke-width="1.5" stroke-miterlimit="10" stroke-linecap="round" stroke-linejoin="round"/>
<path d="M13.3333 3.34961C16.1083 3.49961 17.5 4.52461 17.5 8.33294V13.3329C17.5 16.6663 16.6667 18.3329 12.5 18.3329H7.5C3.33333 18.3329 2.5 16.6663 2.5 13.3329V8.33294C2.5 4.53294 3.89167 3.49961 6.66667 3.34961" stroke="#060D13" stroke-width="1.5" stroke-miterlimit="10" stroke-linecap="round" stroke-linejoin="round"/>
</svg>
