<svg width="20" height="20" viewBox="0 0 20 20" fill="none" xmlns="http://www.w3.org/2000/svg">
<path d="M15.8831 15.5583L14.0997 12L12.3164 15.5583" stroke="#060D13" stroke-width="1.5" stroke-linecap="round" stroke-linejoin="round"/>
<path d="M12.6406 14.9258H15.574" stroke="#060D13" stroke-width="1.5" stroke-linecap="round" stroke-linejoin="round"/>
<path d="M14.1005 18.3338C11.7672 18.3338 9.86719 16.4422 9.86719 14.1005C9.86719 11.7672 11.7589 9.86719 14.1005 9.86719C16.4339 9.86719 18.3339 11.7588 18.3339 14.1005C18.3339 16.4422 16.4422 18.3338 14.1005 18.3338Z" stroke="#060D13" stroke-width="1.5" stroke-linecap="round" stroke-linejoin="round"/>
<path d="M4.18269 1.66602H7.44935C9.17435 1.66602 10.0077 2.49937 9.96602 4.1827V7.44935C10.0077 9.17435 9.17435 10.0077 7.44935 9.96603H4.18269C2.49935 9.99937 1.66602 9.16601 1.66602 7.44101V4.17436C1.66602 2.49936 2.49935 1.66602 4.18269 1.66602Z" stroke="#060D13" stroke-width="1.5" stroke-linecap="round" stroke-linejoin="round"/>
<path d="M7.50833 4.875H4.125" stroke="#060D13" stroke-width="1.5" stroke-linecap="round" stroke-linejoin="round"/>
<path d="M5.80859 4.30859V4.87525" stroke="#060D13" stroke-width="1.5" stroke-linecap="round" stroke-linejoin="round"/>
<path d="M6.65886 4.86719C6.65886 6.32552 5.51719 7.50884 4.11719 7.50884" stroke="#060D13" stroke-width="1.5" stroke-linecap="round" stroke-linejoin="round"/>
<path d="M7.50846 7.50769C6.90012 7.50769 6.35013 7.18268 5.9668 6.66602" stroke="#060D13" stroke-width="1.5" stroke-linecap="round" stroke-linejoin="round"/>
<path d="M1.66602 12.5C1.66602 15.725 4.27435 18.3333 7.49935 18.3333L6.62435 16.875" stroke="#060D13" stroke-width="1.5" stroke-linecap="round" stroke-linejoin="round"/>
<path d="M18.3333 7.49935C18.3333 4.27435 15.725 1.66602 12.5 1.66602L13.375 3.12435" stroke="#060D13" stroke-width="1.5" stroke-linecap="round" stroke-linejoin="round"/>
</svg>
