<svg width="24" height="24" viewBox="0 0 24 24" fill="none" xmlns="http://www.w3.org/2000/svg">
<path d="M11.2994 2.92871C11.7356 2.69086 12.2647 2.69083 12.7008 2.92871L12.7037 2.93066L18.9918 6.31836V6.31934C19.2049 6.43519 19.3502 6.6692 19.3502 6.94043C19.3501 7.21146 19.2048 7.44474 18.9918 7.56055L17.2565 8.49805L15.777 9.28809L15.7731 9.29004L12.7037 10.9502L12.7008 10.9512C12.4822 11.0704 12.2456 11.1299 11.9996 11.1299C11.7538 11.1298 11.5179 11.0703 11.2994 10.9512L11.2955 10.9502L5.00745 7.56055H5.00842C4.79539 7.44477 4.65018 7.21152 4.65002 6.94043C4.65002 6.66928 4.79446 6.43425 5.00745 6.31836L6.97522 5.26074L6.97717 5.25977L8.54749 4.40918L8.54651 4.4082L11.2955 2.93066L11.2994 2.92871Z" fill="#114B7E" stroke="#114B7E" stroke-width="1.5"/>
<path d="M3.03833 10.5721C3.25705 10.4399 3.50085 10.432 3.70825 10.5379L3.71509 10.5409L9.5647 13.4608C10.1721 13.7645 10.5365 14.3638 10.5295 15.0223V20.5604C10.5294 20.8068 10.4097 21.0191 10.2122 21.1385L10.2014 21.1444L10.1907 21.1522C10.0906 21.2175 9.97427 21.2498 9.84985 21.2498C9.74288 21.2498 9.63795 21.2259 9.54517 21.1795V21.1786L3.69458 18.2586H3.6936C3.08917 17.9557 2.71997 17.3554 2.71997 16.6795V11.1502C2.71997 10.9036 2.8407 10.6916 3.03833 10.5721Z" fill="#114B7E" stroke="#114B7E" stroke-width="1.5"/>
<path d="M20.2911 10.5375C20.5083 10.4265 20.7474 10.4369 20.9512 10.5648L20.9551 10.5677C21.1561 10.6921 21.2803 10.9118 21.2803 11.1498V16.6801C21.2803 17.3448 20.9116 17.9459 20.3047 18.2494H20.3038L14.4542 21.1791C14.3615 21.2253 14.2572 21.2503 14.1505 21.2504C14.0286 21.2504 13.906 21.2182 13.7872 21.1439L13.7852 21.142L13.713 21.0912C13.5547 20.9625 13.46 20.7682 13.46 20.5599V15.0404C13.46 14.3641 13.8295 13.7631 14.4346 13.4603L16.584 12.391H16.585L18.085 11.641L20.2852 10.5404L20.2911 10.5375Z" fill="#114B7E" stroke="#114B7E" stroke-width="1.5"/>
<path d="M17.61 9.16L16.13 9.95L6.62 4.6L8.18999 3.75L17.37 8.93C17.47 8.99 17.55 9.07 17.61 9.16Z" fill="#114B7E"/>
<path d="M17.75 10.97V13.24C17.75 13.65 17.41 13.99 17 13.99C16.59 13.99 16.25 13.65 16.25 13.24V11.72L17.75 10.97Z" fill="#114B7E"/>
</svg>
