<svg width="24" height="24" viewBox="0 0 24 24" fill="none" xmlns="http://www.w3.org/2000/svg">
<path d="M10.1993 3.3447C11.1908 2.54835 12.8019 2.55112 13.8126 3.35641L20.3565 8.59079V8.59177C20.6932 8.86645 20.9983 9.30919 21.1973 9.83005C21.3964 10.3511 21.4647 10.8863 21.3985 11.3164L20.1407 18.8418C19.9122 20.157 18.6204 21.25 17.2999 21.25H6.70026C5.44189 21.25 4.2556 20.3145 3.92389 19.0996L3.8692 18.8535L2.60944 11.3164V11.3144C2.53629 10.8825 2.6003 10.3493 2.79791 9.83102C2.99551 9.31285 3.30319 8.87152 3.64752 8.59665L3.64948 8.59567L10.1993 3.34567V3.3447ZM12.0001 13.5C11.1759 13.5 10.5001 14.1758 10.5001 15V18C10.5001 18.8242 11.1758 19.5 12.0001 19.5C12.8243 19.4999 13.5001 18.8242 13.5001 18V15C13.5001 14.1758 12.8243 13.5 12.0001 13.5Z" fill="#114B7E" stroke="#114B7E" stroke-width="1.5"/>
</svg>
