<svg width="24" height="24" viewBox="0 0 24 24" fill="none" xmlns="http://www.w3.org/2000/svg">
<path d="M12 2.75C14.2058 2.75 16 4.54421 16 6.75C15.9901 8.91794 14.2979 10.6645 12.1436 10.7402H12.1426C12.0562 10.7316 11.9701 10.734 11.8896 10.7393C9.67629 10.655 8 8.90531 8 6.75C8 4.54421 9.79421 2.75 12 2.75Z" fill="#114B7E" stroke="#114B7E" stroke-width="1.5"/>
<path d="M12.0128 13.505C13.7358 13.505 15.4178 13.9427 16.6641 14.7736C17.6993 15.4637 18.2155 16.3248 18.2823 17.1925L18.2901 17.3663C18.2877 18.2927 17.7685 19.2202 16.6602 19.9679C15.409 20.8074 13.7238 21.2501 12.0001 21.2501C10.2756 21.2501 8.58928 20.8071 7.33795 19.9669L7.336 19.9659C6.2276 19.227 5.71002 18.2976 5.71002 17.38C5.71002 16.4623 6.22764 15.5237 7.34381 14.7755C8.60133 13.9431 10.2898 13.505 12.0128 13.505Z" fill="#114B7E" stroke="#114B7E" stroke-width="1.5"/>
</svg>
