<svg width="24" height="24" viewBox="0 0 24 24" fill="none" xmlns="http://www.w3.org/2000/svg">
<path d="M16.25 19.75C16.8023 19.75 17.25 20.1977 17.25 20.75C17.25 21.3023 16.8023 21.75 16.25 21.75C15.6977 21.75 15.25 21.3023 15.25 20.75C15.25 20.1977 15.6977 19.75 16.25 19.75Z" fill="#114B7E" stroke="#114B7E" stroke-width="1.5"/>
<path d="M8.25 19.75C8.80228 19.75 9.25 20.1977 9.25 20.75C9.25 21.3023 8.80228 21.75 8.25 21.75C7.69772 21.75 7.25 21.3023 7.25 20.75C7.25 20.1977 7.69772 19.75 8.25 19.75Z" fill="#114B7E" stroke="#114B7E" stroke-width="1.5"/>
<path d="M5.6709 4.0498H18.5596C19.8969 4.0498 20.8996 5.12296 20.8018 6.45508V6.45703C20.8001 6.47757 20.7832 6.5 20.75 6.5H5.44043C5.4172 6.5 5.40386 6.49128 5.39648 6.4834C5.3926 6.47922 5.38989 6.47513 5.38867 6.47168C5.38769 6.4688 5.38686 6.46293 5.3877 6.45312V6.45117L5.58789 4.00098L5.58887 3.98828C5.59638 3.87177 5.59147 3.75552 5.57812 3.64062L5.6709 4.0498ZM5.10645 2.59668C5.13298 2.62705 5.15822 2.65841 5.18262 2.69043C5.15692 2.65825 5.13162 2.62551 5.10352 2.59473L5.10156 2.59277C5.10299 2.59426 5.10502 2.59518 5.10645 2.59668Z" fill="#114B7E" stroke="#114B7E" stroke-width="1.5"/>
<path d="M20.51 8.75H5.16999C4.74999 8.75 4.40999 9.07 4.36999 9.48L4.00999 13.83C3.86999 15.54 5.20999 17 6.91999 17H18.04C19.54 17 20.86 15.77 20.97 14.27L21.3 9.6C21.34 9.14 20.98 8.75 20.51 8.75Z" fill="#114B7E"/>
</svg>
