<svg width="95" height="135" viewBox="0 0 95 135" fill="none" xmlns="http://www.w3.org/2000/svg">
<path d="M47.9028 134.77C47.9028 134.77 44.0978 128.717 38.6289 119.745C35.3451 114.351 31.4647 107.909 27.4525 101.084C26.5232 99.5015 25.5877 97.9067 24.6521 96.293C12.4648 75.3404 0.585131 58.4376 0.0388681 45.8422C-1.05994 20.5508 21.2929 0 47.5198 0C73.7405 0 95.0008 20.6952 95.0008 46.0117C95.0008 59.9697 80.6849 78.7498 67.8446 101.078C66.2121 103.909 64.6047 106.678 63.0538 109.334C60.8813 113.064 58.8156 116.561 56.9507 119.701C56.6054 120.285 56.2663 120.856 55.9335 121.415C51.149 129.458 47.9028 134.77 47.9028 134.77Z" fill="#91A2C6"/>
<path d="M47.5191 16.6582C63.6935 16.6582 76.8101 29.7748 76.8101 45.9492C76.8101 62.1236 63.6998 75.2402 47.5191 75.2402C31.3384 75.2402 18.2344 62.1174 18.2344 45.9429C18.2344 29.7685 31.3447 16.6582 47.5191 16.6582Z" fill="#C4CFE8"/>
<path d="M51.3458 46.013L57.7817 38.8613C58.9182 37.5993 58.8114 35.6591 57.5556 34.5289C56.2936 33.3987 54.3534 33.4991 53.2232 34.7549L47.2206 41.4231L41.218 34.7549C40.0815 33.4929 38.1413 33.3924 36.8855 34.5289C35.6298 35.6591 35.523 37.5993 36.6595 38.8613L43.0954 46.013L36.6595 53.1646C35.5293 54.4267 35.6298 56.3668 36.8855 57.497C37.4758 58.0245 38.2041 58.2819 38.9387 58.2819C39.7801 58.2819 40.6152 57.9366 41.218 57.2647L47.2206 50.5966L53.2232 57.2647C53.8323 57.9366 54.6674 58.2819 55.5025 58.2819C56.2308 58.2819 56.9654 58.0245 57.5556 57.497C58.8114 56.3668 58.9182 54.4267 57.7817 53.1646L51.3458 46.013Z" fill="#FEFEFE"/>
</svg>
