<svg width="157" height="104" viewBox="0 0 157 104" fill="none" xmlns="http://www.w3.org/2000/svg">
<path d="M42.7758 89.6897H114.072H147.704C147.885 89.6897 148.065 89.6646 148.241 89.6195C149.469 89.2835 154.248 87.6588 155.958 82.2783C157.924 76.0854 157.317 62.3406 147.193 60.6758C137.068 59.011 131.633 47.9892 129.973 46.0335C128.604 44.4138 124.457 35.5883 118.966 30.9399C117.206 29.4556 114.974 28.6483 112.673 28.6583H67.2365C60.823 28.6583 54.7153 31.4113 50.4681 36.2202C44.6813 42.7741 37.7964 50.5816 36.5328 52.3016C35.1087 54.2322 33.1079 55.6563 30.8163 56.3684C27.2259 57.4716 20.3109 59.4021 7.19802 62.5663L6.09483 62.9374C4.43002 63.6645 0.558837 65.9059 0.202808 71.111C-0.25351 77.7602 0.202808 82.4387 0.202808 82.4387C0.202808 82.4387 0.503679 89.9905 10.1716 89.6897H42.7758Z" fill="#A6B3D6"/>
<path d="M129.076 55.2405H41.8789C44.0652 52.5627 51.3162 44.349 54.9768 40.197C58.0807 36.6868 62.5436 34.676 67.2322 34.676H112.673C113.551 34.666 114.403 34.9669 115.08 35.5285C118.26 38.2213 121.243 43.2709 123.023 46.2896C124.001 47.9444 124.648 49.0425 125.35 49.88C125.491 50.0605 125.837 50.587 126.112 51.0132C126.834 52.1114 127.817 53.6057 129.076 55.2405Z" fill="#91A2C6"/>
<path d="M84.3577 59.929C82.5876 59.929 81.1484 58.4898 81.1484 56.7197V33.1917C81.1484 31.4216 82.5876 29.9824 84.3577 29.9824C86.1278 29.9824 87.567 31.4216 87.567 33.1917V56.7197C87.567 58.4898 86.1278 59.929 84.3577 59.929Z" fill="#A6B3D6"/>
<path d="M42.7757 89.6908C42.866 97.0771 36.9489 103.14 29.5626 103.23C22.1762 103.32 16.1137 97.4031 16.0234 90.0167C16.0234 89.9064 16.0234 89.7961 16.0234 89.6908C16.1137 82.3044 22.1762 76.3873 29.5626 76.4776C36.8235 76.5678 42.6855 82.4348 42.7757 89.6908Z" fill="#C4CFE8"/>
<path d="M140.827 89.6959C140.827 97.0823 134.839 103.075 127.453 103.075C120.067 103.075 114.074 97.0873 114.074 89.7009C114.074 82.3146 120.062 76.3223 127.448 76.3223H127.453C134.834 76.3223 140.822 82.3096 140.827 89.6959Z" fill="#C4CFE8"/>
<path d="M135.127 89.6939C135.127 93.9362 131.687 97.3811 127.445 97.3811C123.203 97.3811 119.758 93.9412 119.758 89.6989C119.758 85.4567 123.198 82.0117 127.44 82.0117H127.445C131.687 82.0167 135.127 85.4517 135.127 89.6939Z" fill="#A6B3D6"/>
<path d="M37.0831 89.6939C37.0831 93.9362 33.6432 97.3761 29.4009 97.3761C25.1587 97.3761 21.7188 93.9362 21.7188 89.6939C21.7188 85.4517 25.1587 82.0117 29.4009 82.0117C33.6432 82.0117 37.0831 85.4517 37.0831 89.6939Z" fill="#A6B3D6"/>
<path d="M102.931 17.3698C102.931 26.9631 95.1545 34.7396 85.5612 34.7396C75.9679 34.7396 68.1914 26.9631 68.1914 17.3698C68.1914 7.77646 75.9679 0 85.5612 0C95.1517 0 102.928 7.77646 102.931 17.3698Z" fill="#C4CFE8"/>
<path d="M80.1588 10.42C81.271 8.78454 83.0799 7.9668 85.561 7.9668C88.042 7.9668 89.8509 8.78454 90.9631 10.42C92.0753 12.0555 92.6375 14.2922 92.6375 17.1423C92.6375 20.0164 92.0753 22.2772 90.9631 23.9127C89.8509 25.5482 88.042 26.3659 85.561 26.3659C83.0677 26.3659 81.271 25.5482 80.1588 23.9127C79.0466 22.2772 78.4844 20.0164 78.4844 17.1423C78.4844 14.2922 79.0466 12.0555 80.1588 10.42ZM87.8587 13.2821C87.492 12.3802 86.722 11.9352 85.561 11.9352C84.3999 11.9352 83.6421 12.3802 83.2632 13.2821C82.8966 14.184 82.7132 15.4708 82.7132 17.1423C82.7132 18.2727 82.7743 19.1987 82.921 19.9322C83.0554 20.6658 83.3243 21.2671 83.7399 21.712C84.1554 22.169 84.7665 22.3975 85.5732 22.3975C86.3798 22.3975 86.9909 22.169 87.4065 21.712C87.822 21.255 88.0909 20.6658 88.2254 19.9322C88.3598 19.1987 88.4331 18.2607 88.4331 17.1423C88.4087 15.4708 88.2254 14.184 87.8587 13.2821Z" fill="white"/>
</svg>
