<svg width="342" height="135" viewBox="0 0 342 135" fill="none" xmlns="http://www.w3.org/2000/svg">
<g clip-path="url(#clip0_5980_8753)">
<rect width="342" height="135" rx="16" fill="#0F1E2E"/>
<g opacity="0.2">
<path d="M289.733 151.42L287.6 134.353C286.444 133.908 285.355 133.375 284.333 132.753C283.311 132.131 282.311 131.464 281.333 130.753L265.466 137.42L250.8 112.086L264.533 101.686C264.444 101.064 264.4 100.464 264.4 99.8863C264.4 99.3085 264.4 98.7085 264.4 98.0863C264.4 97.464 264.4 96.864 264.4 96.2863C264.4 95.7085 264.444 95.1085 264.533 94.4863L250.8 84.0863L265.466 58.7529L281.333 65.4196C282.311 64.7085 283.333 64.0418 284.4 63.4196C285.466 62.7974 286.533 62.264 287.6 61.8196L289.733 44.7529H319.066L321.2 61.8196C322.355 62.264 323.444 62.7974 324.466 63.4196C325.489 64.0418 326.489 64.7085 327.466 65.4196L343.333 58.7529L358 84.0863L348.133 91.5529C346.178 90.5751 344.178 89.7529 342.133 89.0863C340.089 88.4196 337.911 87.9529 335.6 87.6863L344 81.2863L338.8 72.2196L325.6 77.8196C323.644 75.7752 321.489 74.064 319.133 72.6863C316.778 71.3085 314.222 70.264 311.466 69.5529L309.733 55.4196H299.2L297.333 69.5529C294.578 70.264 292.022 71.3085 289.666 72.6863C287.311 74.064 285.155 75.7307 283.2 77.6863L270 72.2196L264.8 81.2863L276.266 89.8196C275.822 91.1529 275.511 92.4863 275.333 93.8196C275.155 95.1529 275.066 96.5751 275.066 98.0863C275.066 99.5085 275.155 100.886 275.333 102.22C275.511 103.553 275.822 104.886 276.266 106.22L264.8 114.886L270 123.953L283.2 118.353C284.711 119.864 286.333 121.22 288.066 122.42C289.8 123.62 291.689 124.62 293.733 125.42C293.822 130.486 294.866 135.242 296.866 139.686C298.866 144.131 301.555 148.042 304.933 151.42H289.733ZM295.2 114.22C295.733 112.442 296.378 110.731 297.133 109.086C297.889 107.442 298.755 105.864 299.733 104.353C298.755 103.642 298 102.731 297.466 101.62C296.933 100.508 296.666 99.3307 296.666 98.0863C296.666 95.864 297.444 93.9752 299 92.4196C300.555 90.864 302.444 90.0863 304.666 90.0863C305.911 90.0863 307.111 90.3752 308.266 90.9529C309.422 91.5307 310.355 92.3085 311.066 93.2863C312.578 92.3085 314.133 91.4418 315.733 90.6863C317.333 89.9307 319.022 89.3307 320.8 88.8863C319.2 86.0418 316.978 83.7529 314.133 82.0196C311.289 80.2863 308.133 79.4196 304.666 79.4196C299.422 79.4196 295 81.2418 291.4 84.8863C287.8 88.5307 286 92.9307 286 98.0863C286 101.464 286.822 104.597 288.466 107.486C290.111 110.375 292.355 112.62 295.2 114.22ZM331.066 140.753L347.066 124.753L331.066 108.753L327.333 112.486L336.933 122.086H315.066V127.42H336.8L327.333 137.02L331.066 140.753ZM331.066 151.42C323.689 151.42 317.4 148.82 312.2 143.62C307 138.42 304.4 132.131 304.4 124.753C304.4 117.375 307 111.086 312.2 105.886C317.4 100.686 323.689 98.0863 331.066 98.0863C338.444 98.0863 344.733 100.686 349.933 105.886C355.133 111.086 357.733 117.375 357.733 124.753C357.733 132.131 355.133 138.42 349.933 143.62C344.733 148.82 338.444 151.42 331.066 151.42Z" fill="white"/>
</g>
<path d="M89.6617 59.74C87.6084 59.74 86.0551 59.26 85.0017 58.3C83.9617 57.3533 83.4417 56.0067 83.4417 54.26C83.4417 53.66 83.5217 52.9867 83.6817 52.24C83.8551 51.48 84.0884 50.7467 84.3817 50.04L86.3017 50.6C86.0351 51.1733 85.8217 51.7533 85.6617 52.34C85.5151 52.9267 85.4417 53.4333 85.4417 53.86C85.4417 54.7 85.7417 55.3533 86.3417 55.82C86.9417 56.2733 87.7817 56.5 88.8617 56.5H90.4617C91.5951 56.5 92.4284 56.24 92.9617 55.72C93.4951 55.2 93.7617 54.3867 93.7617 53.28C93.7617 52.9733 93.7284 52.58 93.6617 52.1C93.5951 51.62 93.5151 51.1667 93.4217 50.74L93.0217 48.88L95.1817 48.46L95.5617 50.3C95.6551 50.74 95.7284 51.2467 95.7817 51.82C95.8484 52.38 95.8817 52.8667 95.8817 53.28C95.8817 55.4933 95.3751 57.12 94.3617 58.16C93.3617 59.2133 91.7951 59.74 89.6617 59.74ZM89.4617 49C89.1151 49 88.8284 48.8933 88.6017 48.68C88.3884 48.4667 88.2817 48.1267 88.2817 47.66C88.2817 47.1933 88.3884 46.8533 88.6017 46.64C88.8284 46.4267 89.1151 46.32 89.4617 46.32H89.8617C90.2084 46.32 90.4884 46.4267 90.7017 46.64C90.9284 46.8533 91.0417 47.1933 91.0417 47.66C91.0417 48.1267 90.9284 48.4667 90.7017 48.68C90.4884 48.8933 90.2084 49 89.8617 49H89.4617ZM97.3894 53.5L100.829 50.4L96.1894 46.04L97.9294 44.16L102.729 48.68C102.956 48.4267 103.116 48.1533 103.209 47.86C103.316 47.5533 103.369 47.1533 103.369 46.66V41.7H105.769V46.66C105.769 47.0067 105.736 47.3267 105.669 47.62C105.616 47.9133 105.523 48.1933 105.389 48.46C105.269 48.7267 105.103 48.9867 104.889 49.24C104.676 49.48 104.423 49.7333 104.129 50L104.829 50.64C105.109 50.9067 105.349 51.16 105.549 51.4C105.749 51.64 105.909 51.88 106.029 52.12C106.149 52.36 106.236 52.6133 106.289 52.88C106.343 53.1333 106.369 53.4067 106.369 53.7C106.369 54.1 106.296 54.4733 106.149 54.82C106.016 55.1533 105.823 55.4467 105.569 55.7C105.329 55.9533 105.043 56.1533 104.709 56.3C104.376 56.4333 104.009 56.5 103.609 56.5H97.3894V53.5ZM102.169 51.64L100.049 53.42L100.069 53.5H104.169L102.169 51.64ZM96.3294 42.7C96.3294 42.1 96.4827 41.66 96.7894 41.38C97.1094 41.1 97.5894 41.02 98.2294 41.14L99.4494 41.38C99.7427 41.4467 99.9627 41.4867 100.109 41.5C100.269 41.5133 100.396 41.52 100.489 41.52C100.796 41.52 101.023 41.46 101.169 41.34C101.316 41.22 101.443 40.9933 101.549 40.66L102.709 41.24C102.443 42.5867 101.703 43.26 100.489 43.26C100.303 43.26 100.109 43.2533 99.9094 43.24C99.7094 43.2133 99.4494 43.1667 99.1294 43.1L97.7294 42.84V43.42H96.3294V42.7ZM108.278 41.7H110.678V56.5H108.278V41.7ZM121.229 56.74C119.896 56.74 118.856 56.3867 118.109 55.68C117.376 54.9733 117.009 53.9733 117.009 52.68C117.009 51.88 117.209 51.06 117.609 50.22C118.009 49.38 118.616 48.5733 119.429 47.8L119.829 47.42H122.749L123.169 47.78C123.969 48.46 124.549 49.1533 124.909 49.86C125.269 50.5667 125.449 51.36 125.449 52.24C125.449 53.6533 125.076 54.76 124.329 55.56C123.596 56.3467 122.562 56.74 121.229 56.74ZM121.429 53.74C122.069 53.74 122.562 53.6267 122.909 53.4C123.269 53.1733 123.449 52.8667 123.449 52.48C123.449 52.36 123.422 52.2333 123.369 52.1C123.329 51.9667 123.242 51.82 123.109 51.66C122.976 51.5 122.796 51.3133 122.569 51.1C122.342 50.8867 122.049 50.64 121.689 50.36L120.989 49.82H120.829L120.249 50.38C120.022 50.6067 119.829 50.8067 119.669 50.98C119.509 51.1533 119.376 51.32 119.269 51.48C119.176 51.6267 119.109 51.7733 119.069 51.92C119.029 52.0667 119.009 52.22 119.009 52.38C119.009 52.78 119.182 53.1067 119.529 53.36C119.889 53.6133 120.389 53.74 121.029 53.74H121.429ZM122.669 45.82C122.322 45.82 122.036 45.7133 121.809 45.5C121.596 45.2867 121.489 44.9467 121.489 44.48C121.489 44.0133 121.596 43.6733 121.809 43.46C122.036 43.2467 122.322 43.14 122.669 43.14H123.069C123.416 43.14 123.696 43.2467 123.909 43.46C124.136 43.6733 124.249 44.0133 124.249 44.48C124.249 44.9467 124.136 45.2867 123.909 45.5C123.696 45.7133 123.416 45.82 123.069 45.82H122.669ZM119.509 45.82C119.162 45.82 118.876 45.7133 118.649 45.5C118.436 45.2867 118.329 44.9467 118.329 44.48C118.329 44.0133 118.436 43.6733 118.649 43.46C118.876 43.2467 119.162 43.14 119.509 43.14H119.909C120.256 43.14 120.536 43.2467 120.749 43.46C120.976 43.6733 121.089 44.0133 121.089 44.48C121.089 44.9467 120.976 45.2867 120.749 45.5C120.536 45.7133 120.256 45.82 119.909 45.82H119.509ZM124.647 58.3H125.447C126.661 58.3 127.547 58.0533 128.107 57.56C128.681 57.0667 128.961 56.2467 128.947 55.1C128.947 54.7933 128.927 54.4733 128.887 54.14C128.847 53.7933 128.794 53.4267 128.727 53.04L128.307 50.38L130.487 50.04L130.787 51.9C130.841 52.1933 130.881 52.4733 130.907 52.74C130.947 53.0067 130.981 53.26 131.007 53.5H132.847V55.9L132.247 56.5H131.007C130.781 57.98 130.194 59.1467 129.247 60C128.314 60.8667 127.054 61.3 125.467 61.3H124.647V58.3ZM132.239 54.1L132.839 53.5H136.719C137.173 53.5 137.586 53.4733 137.959 53.42C138.346 53.3667 138.666 53.2733 138.919 53.14C139.186 53.0067 139.393 52.8267 139.539 52.6C139.686 52.3733 139.759 52.0867 139.759 51.74V50.82H139.639C139.253 51.8733 138.366 52.4 136.979 52.4C135.899 52.4 135.053 52.12 134.439 51.56C133.839 50.9867 133.539 50.2 133.539 49.2C133.539 48.5067 133.639 47.8667 133.839 47.28C134.053 46.68 134.339 46.1667 134.699 45.74C135.073 45.3 135.506 44.96 135.999 44.72C136.506 44.4667 137.053 44.34 137.639 44.34C138.946 44.34 139.959 44.8867 140.679 45.98C141.413 47.0733 141.779 48.5933 141.779 50.54C141.779 51.7533 141.673 52.7467 141.459 53.52C141.246 54.2933 140.926 54.9 140.499 55.34C140.086 55.78 139.559 56.0867 138.919 56.26C138.293 56.42 137.559 56.5 136.719 56.5H132.239V54.1ZM137.599 49.8C138.106 49.8 138.533 49.78 138.879 49.74C139.226 49.6867 139.506 49.6067 139.719 49.5C139.639 48.8467 139.379 48.3267 138.939 47.94C138.513 47.54 137.993 47.34 137.379 47.34C136.859 47.34 136.419 47.48 136.059 47.76C135.713 48.0267 135.539 48.3733 135.539 48.8C135.539 49.16 135.686 49.42 135.979 49.58C136.273 49.7267 136.673 49.8 137.179 49.8H137.599ZM137.439 42.74C137.093 42.74 136.806 42.6333 136.579 42.42C136.366 42.2067 136.259 41.8667 136.259 41.4C136.259 40.9333 136.366 40.5933 136.579 40.38C136.806 40.1667 137.093 40.06 137.439 40.06H137.839C138.186 40.06 138.466 40.1667 138.679 40.38C138.906 40.5933 139.019 40.9333 139.019 41.4C139.019 41.8667 138.906 42.2067 138.679 42.42C138.466 42.6333 138.186 42.74 137.839 42.74H137.439ZM143.088 58.3H144.368C145.634 58.3 146.648 58.14 147.408 57.82C148.181 57.5 148.728 57.06 149.048 56.5H146.728C145.648 56.5 144.801 56.1867 144.188 55.56C143.588 54.92 143.288 54.0333 143.288 52.9C143.288 52.2067 143.388 51.5667 143.588 50.98C143.801 50.38 144.088 49.8667 144.448 49.44C144.821 49 145.254 48.66 145.748 48.42C146.254 48.1667 146.801 48.04 147.388 48.04C148.601 48.04 149.561 48.52 150.268 49.48C150.974 50.44 151.361 51.78 151.428 53.5H152.448V55.9L151.848 56.5H151.168C150.794 58.0333 150.054 59.2133 148.948 60.04C147.854 60.88 146.394 61.3 144.568 61.3H143.088V58.3ZM145.288 52.5C145.288 52.86 145.434 53.12 145.728 53.28C146.021 53.4267 146.421 53.5 146.928 53.5H149.428V53.44C149.428 52.72 149.208 52.14 148.768 51.7C148.341 51.26 147.794 51.04 147.128 51.04C146.608 51.04 146.168 51.18 145.808 51.46C145.461 51.7267 145.288 52.0733 145.288 52.5ZM151.849 54.1L152.449 53.5H153.049C154.115 53.5 154.649 53.0333 154.649 52.1V49.24H156.849V52.1C156.849 53.0333 157.315 53.5 158.249 53.5H159.049V55.9L158.449 56.5C157.382 56.5 156.569 56.2867 156.009 55.86C155.462 55.42 155.095 54.7333 154.909 53.8H154.789C154.602 54.7333 154.282 55.42 153.829 55.86C153.375 56.2867 152.715 56.5 151.849 56.5V54.1ZM157.129 47.64C156.782 47.64 156.495 47.5333 156.269 47.32C156.055 47.1067 155.949 46.7667 155.949 46.3C155.949 45.8333 156.055 45.4933 156.269 45.28C156.495 45.0667 156.782 44.96 157.129 44.96H157.529C157.875 44.96 158.155 45.0667 158.369 45.28C158.595 45.4933 158.709 45.8333 158.709 46.3C158.709 46.7667 158.595 47.1067 158.369 47.32C158.155 47.5333 157.875 47.64 157.529 47.64H157.129ZM153.969 47.64C153.622 47.64 153.335 47.5333 153.109 47.32C152.895 47.1067 152.789 46.7667 152.789 46.3C152.789 45.8333 152.895 45.4933 153.109 45.28C153.335 45.0667 153.622 44.96 153.969 44.96H154.369C154.715 44.96 154.995 45.0667 155.209 45.28C155.435 45.4933 155.549 45.8333 155.549 46.3C155.549 46.7667 155.435 47.1067 155.209 47.32C154.995 47.5333 154.715 47.64 154.369 47.64H153.969ZM161.39 55.38C161.084 55.7933 160.697 56.0867 160.23 56.26C159.777 56.42 159.184 56.5 158.45 56.5V54.1L159.05 53.5C159.544 53.5 159.904 53.4267 160.13 53.28C160.357 53.1333 160.544 52.8733 160.69 52.5L161.25 51.12C161.424 50.6933 161.617 50.2933 161.83 49.92C162.044 49.5467 162.297 49.22 162.59 48.94C162.884 48.66 163.21 48.44 163.57 48.28C163.944 48.12 164.37 48.04 164.85 48.04C166.104 48.04 167.044 48.5333 167.67 49.52C168.31 50.5067 168.63 51.8733 168.63 53.62V54.2L166.73 57.02L161.39 55.38ZM162.49 52.6L166.51 53.82V53.62C166.51 52.82 166.317 52.1933 165.93 51.74C165.544 51.2867 165.017 51.06 164.35 51.06C163.924 51.06 163.55 51.1733 163.23 51.4C162.924 51.6267 162.69 51.9867 162.53 52.48L162.49 52.6ZM184.05 56.5C182.837 56.4867 181.95 56.1933 181.39 55.62C180.83 55.0333 180.55 54.2333 180.55 53.22V53.12H180.43C180.324 53.5867 180.197 53.98 180.05 54.3C179.917 54.62 179.744 54.88 179.53 55.08C179.317 55.2667 179.064 55.4067 178.77 55.5C178.477 55.58 178.13 55.62 177.73 55.62C176.77 55.62 176.05 55.3667 175.57 54.86C175.09 54.34 174.85 53.6133 174.85 52.68C174.85 51.5867 175.15 50.7 175.75 50.02C176.364 49.3267 177.184 48.7267 178.21 48.22L180.45 47.1V46H182.85V52.42C182.85 52.82 182.937 53.1 183.11 53.26C183.297 53.42 183.61 53.5 184.05 53.5H184.65V55.9L184.05 56.5ZM178.39 52.62C179.164 52.62 179.697 52.5467 179.99 52.4C180.297 52.2533 180.45 51.9867 180.45 51.6V49.2L178.97 49.9C178.61 50.0733 178.297 50.2267 178.03 50.36C177.777 50.4933 177.557 50.6333 177.37 50.78C177.197 50.9133 177.064 51.0533 176.97 51.2C176.89 51.3467 176.85 51.5133 176.85 51.7C176.85 52.0333 176.957 52.2733 177.17 52.42C177.397 52.5533 177.804 52.62 178.39 52.62ZM181.47 44.4C181.124 44.4 180.837 44.2933 180.61 44.08C180.397 43.8667 180.29 43.5267 180.29 43.06C180.29 42.5933 180.397 42.2533 180.61 42.04C180.837 41.8267 181.124 41.72 181.47 41.72H181.87C182.217 41.72 182.497 41.8267 182.71 42.04C182.937 42.2533 183.05 42.5933 183.05 43.06C183.05 43.5267 182.937 43.8667 182.71 44.08C182.497 44.2933 182.217 44.4 181.87 44.4H181.47ZM178.31 44.4C177.964 44.4 177.677 44.2933 177.45 44.08C177.237 43.8667 177.13 43.5267 177.13 43.06C177.13 42.5933 177.237 42.2533 177.45 42.04C177.677 41.8267 177.964 41.72 178.31 41.72H178.71C179.057 41.72 179.337 41.8267 179.55 42.04C179.777 42.2533 179.89 42.5933 179.89 43.06C179.89 43.5267 179.777 43.8667 179.55 44.08C179.337 44.2933 179.057 44.4 178.71 44.4H178.31ZM184.056 54.1L184.656 53.5H185.256C186.322 53.5 186.856 53.0333 186.856 52.1V49.24H189.056V52.1C189.056 53.0333 189.522 53.5 190.456 53.5H191.256V55.9L190.656 56.5C189.589 56.5 188.776 56.2867 188.216 55.86C187.669 55.42 187.302 54.7333 187.116 53.8H186.996C186.809 54.7333 186.489 55.42 186.036 55.86C185.582 56.2867 184.922 56.5 184.056 56.5V54.1ZM189.336 60.8C188.989 60.8 188.702 60.6933 188.476 60.48C188.262 60.2667 188.156 59.9267 188.156 59.46C188.156 58.9933 188.262 58.6533 188.476 58.44C188.702 58.2267 188.989 58.12 189.336 58.12H189.736C190.082 58.12 190.362 58.2267 190.576 58.44C190.802 58.6533 190.916 58.9933 190.916 59.46C190.916 59.9267 190.802 60.2667 190.576 60.48C190.362 60.6933 190.082 60.8 189.736 60.8H189.336ZM186.176 60.8C185.829 60.8 185.542 60.6933 185.316 60.48C185.102 60.2667 184.996 59.9267 184.996 59.46C184.996 58.9933 185.102 58.6533 185.316 58.44C185.542 58.2267 185.829 58.12 186.176 58.12H186.576C186.922 58.12 187.202 58.2267 187.416 58.44C187.642 58.6533 187.756 58.9933 187.756 59.46C187.756 59.9267 187.642 60.2667 187.416 60.48C187.202 60.6933 186.922 60.8 186.576 60.8H186.176ZM190.657 54.1L191.257 53.5H191.857C192.924 53.5 193.457 53.0333 193.457 52.1V49.24H195.657V52.1C195.657 53.0333 196.124 53.5 197.057 53.5H197.857V55.9L197.257 56.5C196.191 56.5 195.377 56.2867 194.817 55.86C194.271 55.42 193.904 54.7333 193.717 53.8H193.597C193.411 54.7333 193.091 55.42 192.637 55.86C192.184 56.2867 191.524 56.5 190.657 56.5V54.1ZM194.357 47.64C194.011 47.64 193.724 47.5333 193.497 47.32C193.284 47.1067 193.177 46.7667 193.177 46.3C193.177 45.8333 193.284 45.4933 193.497 45.28C193.724 45.0667 194.011 44.96 194.357 44.96H194.757C195.104 44.96 195.384 45.0667 195.597 45.28C195.824 45.4933 195.937 45.8333 195.937 46.3C195.937 46.7667 195.824 47.1067 195.597 47.32C195.384 47.5333 195.104 47.64 194.757 47.64H194.357ZM197.259 54.1L197.859 53.5H198.459C199.526 53.5 200.059 53.0333 200.059 52.1V49.24H202.259V52.1C202.259 53.0333 202.726 53.5 203.659 53.5H204.459V55.9L203.859 56.5C202.792 56.5 201.979 56.2867 201.419 55.86C200.872 55.42 200.506 54.7333 200.319 53.8H200.199C200.012 54.7333 199.692 55.42 199.239 55.86C198.786 56.2867 198.126 56.5 197.259 56.5V54.1ZM202.539 60.8C202.192 60.8 201.906 60.6933 201.679 60.48C201.466 60.2667 201.359 59.9267 201.359 59.46C201.359 58.9933 201.466 58.6533 201.679 58.44C201.906 58.2267 202.192 58.12 202.539 58.12H202.939C203.286 58.12 203.566 58.2267 203.779 58.44C204.006 58.6533 204.119 58.9933 204.119 59.46C204.119 59.9267 204.006 60.2667 203.779 60.48C203.566 60.6933 203.286 60.8 202.939 60.8H202.539ZM199.379 60.8C199.032 60.8 198.746 60.6933 198.519 60.48C198.306 60.2667 198.199 59.9267 198.199 59.46C198.199 58.9933 198.306 58.6533 198.519 58.44C198.746 58.2267 199.032 58.12 199.379 58.12H199.779C200.126 58.12 200.406 58.2267 200.619 58.44C200.846 58.6533 200.959 58.9933 200.959 59.46C200.959 59.9267 200.846 60.2667 200.619 60.48C200.406 60.6933 200.126 60.8 199.779 60.8H199.379ZM208.86 52.1C208.86 52.6733 209.02 53.0667 209.34 53.28L210.22 51.76C210.687 50.9467 211.16 50.2533 211.64 49.68C212.134 49.1067 212.647 48.64 213.18 48.28C213.714 47.92 214.274 47.66 214.86 47.5C215.46 47.3267 216.1 47.24 216.78 47.24C218.354 47.24 219.534 47.6733 220.32 48.54C221.107 49.3933 221.5 50.5867 221.5 52.12C221.5 53.6267 221.074 54.7333 220.22 55.44C219.367 56.1467 218.02 56.5 216.18 56.5H210.46C209.394 56.5 208.58 56.2867 208.02 55.86C207.474 55.42 207.107 54.7333 206.92 53.8H206.8C206.614 54.7333 206.294 55.42 205.84 55.86C205.387 56.2867 204.727 56.5 203.86 56.5V54.1L204.46 53.5H205.06C206.127 53.5 206.66 53.0333 206.66 52.1V50.84H208.86V52.1ZM216.18 53.5C216.82 53.5 217.347 53.48 217.76 53.44C218.187 53.3867 218.527 53.3067 218.78 53.2C219.047 53.08 219.234 52.92 219.34 52.72C219.447 52.52 219.5 52.26 219.5 51.94C219.5 51.3667 219.314 50.94 218.94 50.66C218.567 50.38 217.947 50.24 217.08 50.24H216.48C215.88 50.24 215.354 50.2667 214.9 50.32C214.447 50.36 214.047 50.4467 213.7 50.58C213.354 50.7133 213.04 50.9 212.76 51.14C212.48 51.38 212.214 51.6933 211.96 52.08L211.1 53.38L211.16 53.5H216.18ZM225.721 58.3H226.521C227.735 58.3 228.621 58.0533 229.181 57.56C229.755 57.0667 230.035 56.2467 230.021 55.1C230.021 54.7933 230.001 54.4733 229.961 54.14C229.921 53.7933 229.868 53.4267 229.801 53.04L229.381 50.38L231.561 50.04L231.861 51.9C231.968 52.54 232.048 53.1333 232.101 53.68C232.168 54.2133 232.201 54.6533 232.201 55C232.201 55.96 232.081 56.8267 231.841 57.6C231.601 58.3733 231.241 59.0333 230.761 59.58C230.281 60.14 229.688 60.5667 228.981 60.86C228.275 61.1533 227.461 61.3 226.541 61.3H225.721V58.3ZM238.078 56.5C236.731 56.5 235.731 56.18 235.078 55.54C234.425 54.9 234.098 53.86 234.098 52.42V41.7H236.498V52.02C236.498 52.62 236.618 53.02 236.858 53.22C237.098 53.4067 237.511 53.5 238.098 53.5H238.698V55.9L238.098 56.5H238.078ZM238.099 54.1L238.699 53.5H239.299C240.365 53.5 240.899 53.0333 240.899 52.1V49.24H243.099V52.1C243.099 53.0333 243.565 53.5 244.499 53.5H245.299V55.9L244.699 56.5C243.632 56.5 242.819 56.2867 242.259 55.86C241.712 55.42 241.345 54.7333 241.159 53.8H241.039C240.852 54.7333 240.532 55.42 240.079 55.86C239.625 56.2867 238.965 56.5 238.099 56.5V54.1ZM243.379 60.8C243.032 60.8 242.745 60.6933 242.519 60.48C242.305 60.2667 242.199 59.9267 242.199 59.46C242.199 58.9933 242.305 58.6533 242.519 58.44C242.745 58.2267 243.032 58.12 243.379 58.12H243.779C244.125 58.12 244.405 58.2267 244.619 58.44C244.845 58.6533 244.959 58.9933 244.959 59.46C244.959 59.9267 244.845 60.2667 244.619 60.48C244.405 60.6933 244.125 60.8 243.779 60.8H243.379ZM240.219 60.8C239.872 60.8 239.585 60.6933 239.359 60.48C239.145 60.2667 239.039 59.9267 239.039 59.46C239.039 58.9933 239.145 58.6533 239.359 58.44C239.585 58.2267 239.872 58.12 240.219 58.12H240.619C240.965 58.12 241.245 58.2267 241.459 58.44C241.685 58.6533 241.799 58.9933 241.799 59.46C241.799 59.9267 241.685 60.2667 241.459 60.48C241.245 60.6933 240.965 60.8 240.619 60.8H240.219ZM244.7 54.1L245.3 53.5H246.9V53.4C246.634 53.0133 246.427 52.6 246.28 52.16C246.147 51.72 246.08 51.2467 246.08 50.74C246.08 50.0867 246.194 49.4733 246.42 48.9C246.66 48.3267 246.98 47.8267 247.38 47.4C247.794 46.96 248.274 46.62 248.82 46.38C249.38 46.1267 249.987 46 250.64 46C251.72 46 252.6 46.22 253.28 46.66C253.96 47.1 254.527 47.7 254.98 48.46L252.84 50.36C252.547 49.8933 252.207 49.5533 251.82 49.34C251.434 49.1133 250.974 49 250.44 49C249.694 49 249.114 49.1533 248.7 49.46C248.287 49.7533 248.08 50.18 248.08 50.74C248.08 51.42 248.367 51.9467 248.94 52.32C249.514 52.68 250.32 52.86 251.36 52.86C251.707 52.86 252.074 52.8333 252.46 52.78C252.847 52.7267 253.2 52.6533 253.52 52.56L255.46 52.02L256.22 54.72L253.28 55.62C252.707 55.7933 252.154 55.94 251.62 56.06C251.087 56.1667 250.5 56.2533 249.86 56.32C249.22 56.3867 248.487 56.4333 247.66 56.46C246.834 56.4867 245.847 56.5 244.7 56.5V54.1ZM250.44 44.4C250.094 44.4 249.807 44.2933 249.58 44.08C249.367 43.8667 249.26 43.5267 249.26 43.06C249.26 42.5933 249.367 42.2533 249.58 42.04C249.807 41.8267 250.094 41.72 250.44 41.72H250.84C251.187 41.72 251.467 41.8267 251.68 42.04C251.907 42.2533 252.02 42.5933 252.02 43.06C252.02 43.5267 251.907 43.8667 251.68 44.08C251.467 44.2933 251.187 44.4 250.84 44.4H250.44ZM267.893 62.58C266.08 62.58 264.673 62.1867 263.673 61.4C262.673 60.6267 262.173 59.5133 262.173 58.06C262.173 57.6467 262.226 57.24 262.333 56.84C262.453 56.4533 262.66 56.06 262.953 55.66C263.26 55.26 263.673 54.8467 264.193 54.42C264.726 53.98 265.406 53.5133 266.233 53.02L263.633 49.82V46.72C264.3 46.4133 265 46.18 265.733 46.02C266.48 45.8467 267.206 45.76 267.913 45.76C269.46 45.76 270.593 46.0333 271.313 46.58C272.033 47.1267 272.393 47.9867 272.393 49.16C272.393 49.9733 272.2 50.6933 271.813 51.32C271.44 51.9333 270.853 52.4933 270.053 53L269.553 53.32C269.806 53.4 270.093 53.4533 270.413 53.48C270.733 53.4933 271.133 53.5 271.613 53.5H273.953V55.9L273.553 56.5H271.413C271.026 56.5 270.673 56.4733 270.353 56.42C270.046 56.3667 269.746 56.2733 269.453 56.14C269.16 55.9933 268.86 55.8 268.553 55.56C268.246 55.3067 267.913 54.98 267.553 54.58C266.926 54.98 266.406 55.3267 265.993 55.62C265.593 55.9 265.273 56.1533 265.033 56.38C264.793 56.5933 264.62 56.7933 264.513 56.98C264.42 57.1667 264.373 57.36 264.373 57.56V57.68C264.373 58.24 264.68 58.6933 265.293 59.04C265.906 59.4 266.826 59.58 268.053 59.58C268.866 59.58 269.653 59.4067 270.413 59.06C271.186 58.7267 271.853 58.2467 272.413 57.62L273.913 59.98C273.153 60.8067 272.246 61.4467 271.193 61.9C270.14 62.3533 269.04 62.58 267.893 62.58ZM265.553 49.14L267.993 52.02L269.193 51.34C269.993 50.8733 270.393 50.3667 270.393 49.82C270.393 49.4333 270.206 49.16 269.833 49C269.473 48.84 268.833 48.76 267.913 48.76C267.5 48.76 267.08 48.7867 266.653 48.84C266.226 48.8933 265.86 48.9533 265.553 49.02V49.14ZM287.973 56.5C287.506 56.5 287.059 56.4467 286.633 56.34C286.219 56.22 285.826 56.0067 285.453 55.7C284.599 56.2333 283.386 56.5 281.813 56.5H273.353V54.1L273.953 53.5H274.853L275.353 52.64V41.7H277.753V46.82L277.513 49.16L277.673 49.24C278.353 48.5333 279.079 48.0267 279.853 47.72C280.626 47.4 281.479 47.24 282.413 47.24C283.986 47.24 285.166 47.6733 285.953 48.54C286.739 49.3933 287.133 50.5867 287.133 52.12C287.133 52.6267 287.086 53.0667 286.993 53.44C287.326 53.48 287.653 53.5 287.973 53.5H288.573V55.9L287.973 56.5ZM281.813 53.5C282.453 53.5 282.979 53.48 283.393 53.44C283.819 53.3867 284.159 53.3067 284.413 53.2C284.679 53.08 284.866 52.92 284.973 52.72C285.079 52.52 285.133 52.26 285.133 51.94C285.133 51.3667 284.946 50.94 284.573 50.66C284.199 50.38 283.579 50.24 282.713 50.24H282.113C281.513 50.24 280.986 50.2667 280.533 50.32C280.079 50.36 279.679 50.4467 279.333 50.58C278.986 50.7133 278.673 50.9 278.393 51.14C278.113 51.38 277.846 51.6933 277.593 52.08L276.733 53.38L276.793 53.5H281.813ZM287.982 54.1L288.582 53.5H292.462C292.915 53.5 293.328 53.4733 293.702 53.42C294.088 53.3667 294.408 53.2733 294.662 53.14C294.928 53.0067 295.135 52.8267 295.282 52.6C295.428 52.3733 295.502 52.0867 295.502 51.74V50.82H295.382C294.995 51.8733 294.108 52.4 292.722 52.4C291.642 52.4 290.795 52.12 290.182 51.56C289.582 50.9867 289.282 50.2 289.282 49.2C289.282 48.5067 289.382 47.8667 289.582 47.28C289.795 46.68 290.082 46.1667 290.442 45.74C290.815 45.3 291.248 44.96 291.742 44.72C292.248 44.4667 292.795 44.34 293.382 44.34C294.688 44.34 295.702 44.8867 296.422 45.98C297.155 47.0733 297.522 48.5933 297.522 50.54C297.522 51.7533 297.415 52.7467 297.202 53.52C296.988 54.2933 296.668 54.9 296.242 55.34C295.828 55.78 295.302 56.0867 294.662 56.26C294.035 56.42 293.302 56.5 292.462 56.5H287.982V54.1ZM293.342 49.8C293.848 49.8 294.275 49.78 294.622 49.74C294.968 49.6867 295.248 49.6067 295.462 49.5C295.382 48.8467 295.122 48.3267 294.682 47.94C294.255 47.54 293.735 47.34 293.122 47.34C292.602 47.34 292.162 47.48 291.802 47.76C291.455 48.0267 291.282 48.3733 291.282 48.8C291.282 49.16 291.428 49.42 291.722 49.58C292.015 49.7267 292.415 49.8 292.922 49.8H293.342ZM294.762 42.74C294.415 42.74 294.128 42.6333 293.902 42.42C293.688 42.2067 293.582 41.8667 293.582 41.4C293.582 40.9333 293.688 40.5933 293.902 40.38C294.128 40.1667 294.415 40.06 294.762 40.06H295.162C295.508 40.06 295.788 40.1667 296.002 40.38C296.228 40.5933 296.342 40.9333 296.342 41.4C296.342 41.8667 296.228 42.2067 296.002 42.42C295.788 42.6333 295.508 42.74 295.162 42.74H294.762ZM291.602 42.74C291.255 42.74 290.968 42.6333 290.742 42.42C290.528 42.2067 290.422 41.8667 290.422 41.4C290.422 40.9333 290.528 40.5933 290.742 40.38C290.968 40.1667 291.255 40.06 291.602 40.06H292.002C292.348 40.06 292.628 40.1667 292.842 40.38C293.068 40.5933 293.182 40.9333 293.182 41.4C293.182 41.8667 293.068 42.2067 292.842 42.42C292.628 42.6333 292.348 42.74 292.002 42.74H291.602Z" fill="#FEFEFE"/>
<g filter="url(#filter0_d_5980_8753)">
<rect x="212.48" y="71.5" width="85.75" height="28" rx="14" fill="#1B7CD0" shape-rendering="crispEdges"/>
<path d="M235.039 91.444C233.807 91.444 232.875 91.156 232.243 90.58C231.619 90.012 231.307 89.204 231.307 88.156C231.307 87.796 231.355 87.392 231.451 86.944C231.555 86.488 231.695 86.048 231.871 85.624L233.023 85.96C232.863 86.304 232.735 86.652 232.639 87.004C232.551 87.356 232.507 87.66 232.507 87.916C232.507 88.42 232.687 88.812 233.047 89.092C233.407 89.364 233.911 89.5 234.559 89.5H235.519C236.199 89.5 236.699 89.344 237.019 89.032C237.339 88.72 237.499 88.232 237.499 87.568C237.499 87.384 237.479 87.148 237.439 86.86C237.399 86.572 237.351 86.3 237.295 86.044L237.055 84.928L238.351 84.676L238.579 85.78C238.635 86.044 238.679 86.348 238.711 86.692C238.751 87.028 238.771 87.32 238.771 87.568C238.771 88.896 238.467 89.872 237.859 90.496C237.259 91.128 236.319 91.444 235.039 91.444ZM234.919 85C234.711 85 234.539 84.936 234.403 84.808C234.275 84.68 234.211 84.476 234.211 84.196C234.211 83.916 234.275 83.712 234.403 83.584C234.539 83.456 234.711 83.392 234.919 83.392H235.159C235.367 83.392 235.535 83.456 235.663 83.584C235.799 83.712 235.867 83.916 235.867 84.196C235.867 84.476 235.799 84.68 235.663 84.808C235.535 84.936 235.367 85 235.159 85H234.919ZM239.675 87.7L241.739 85.84L238.955 83.224L239.999 82.096L242.879 84.808C243.015 84.656 243.111 84.492 243.167 84.316C243.231 84.132 243.263 83.892 243.263 83.596V80.62H244.703V83.596C244.703 83.804 244.683 83.996 244.643 84.172C244.611 84.348 244.555 84.516 244.475 84.676C244.403 84.836 244.303 84.992 244.175 85.144C244.047 85.288 243.895 85.44 243.719 85.6L244.139 85.984C244.307 86.144 244.451 86.296 244.571 86.44C244.691 86.584 244.787 86.728 244.859 86.872C244.931 87.016 244.983 87.168 245.015 87.328C245.047 87.48 245.063 87.644 245.063 87.82C245.063 88.06 245.019 88.284 244.931 88.492C244.851 88.692 244.735 88.868 244.583 89.02C244.439 89.172 244.267 89.292 244.067 89.38C243.867 89.46 243.647 89.5 243.407 89.5H239.675V87.7ZM242.543 86.584L241.271 87.652L241.283 87.7H243.743L242.543 86.584ZM239.039 81.22C239.039 80.86 239.131 80.596 239.315 80.428C239.507 80.26 239.795 80.212 240.179 80.284L240.911 80.428C241.087 80.468 241.219 80.492 241.307 80.5C241.403 80.508 241.479 80.512 241.535 80.512C241.719 80.512 241.855 80.476 241.943 80.404C242.031 80.332 242.107 80.196 242.171 79.996L242.867 80.344C242.707 81.152 242.263 81.556 241.535 81.556C241.423 81.556 241.307 81.552 241.187 81.544C241.067 81.528 240.911 81.5 240.719 81.46L239.879 81.304V81.652H239.039V81.22ZM246.208 80.62H247.648V89.5H246.208V80.62ZM255.719 92.26C254.367 92.26 253.347 91.972 252.659 91.396C251.971 90.82 251.627 90.008 251.627 88.96C251.627 88.6 251.675 88.196 251.771 87.748C251.875 87.292 252.015 86.852 252.191 86.428L253.343 86.764C253.183 87.108 253.055 87.456 252.959 87.808C252.871 88.16 252.827 88.464 252.827 88.72C252.827 89.224 253.039 89.616 253.463 89.896C253.887 90.176 254.479 90.316 255.239 90.316H256.199C256.647 90.316 257.023 90.292 257.327 90.244C257.631 90.196 257.875 90.112 258.059 89.992C258.251 89.88 258.387 89.732 258.467 89.548C258.555 89.364 258.599 89.136 258.599 88.864V88.312H258.527C258.407 88.72 258.211 89.02 257.939 89.212C257.675 89.404 257.339 89.5 256.931 89.5C256.283 89.5 255.775 89.312 255.407 88.936C255.047 88.552 254.867 88.02 254.867 87.34C254.867 86.924 254.927 86.54 255.047 86.188C255.175 85.828 255.347 85.52 255.563 85.264C255.787 85 256.047 84.796 256.343 84.652C256.647 84.5 256.975 84.424 257.327 84.424C258.111 84.424 258.719 84.752 259.151 85.408C259.591 86.064 259.811 86.976 259.811 88.144C259.811 88.912 259.739 89.556 259.595 90.076C259.459 90.604 259.227 91.028 258.899 91.348C258.579 91.676 258.159 91.908 257.639 92.044C257.119 92.188 256.479 92.26 255.719 92.26ZM257.303 87.7C257.607 87.7 257.863 87.688 258.071 87.664C258.279 87.632 258.447 87.584 258.575 87.52C258.527 87.128 258.371 86.816 258.107 86.584C257.851 86.344 257.539 86.224 257.171 86.224C256.859 86.224 256.595 86.308 256.379 86.476C256.171 86.636 256.067 86.844 256.067 87.1C256.067 87.316 256.155 87.472 256.331 87.568C256.507 87.656 256.747 87.7 257.051 87.7H257.303ZM258.155 83.464C257.947 83.464 257.775 83.4 257.639 83.272C257.511 83.144 257.447 82.94 257.447 82.66C257.447 82.38 257.511 82.176 257.639 82.048C257.775 81.92 257.947 81.856 258.155 81.856H258.395C258.603 81.856 258.771 81.92 258.899 82.048C259.035 82.176 259.103 82.38 259.103 82.66C259.103 82.94 259.035 83.144 258.899 83.272C258.771 83.4 258.603 83.464 258.395 83.464H258.155ZM256.259 83.464C256.051 83.464 255.879 83.4 255.743 83.272C255.615 83.144 255.551 82.94 255.551 82.66C255.551 82.38 255.615 82.176 255.743 82.048C255.879 81.92 256.051 81.856 256.259 81.856H256.499C256.707 81.856 256.875 81.92 257.003 82.048C257.139 82.176 257.207 82.38 257.207 82.66C257.207 82.94 257.139 83.144 257.003 83.272C256.875 83.4 256.707 83.464 256.499 83.464H256.259ZM260.59 90.58H261.358C262.118 90.58 262.726 90.484 263.182 90.292C263.646 90.1 263.974 89.836 264.166 89.5H262.774C262.126 89.5 261.618 89.312 261.25 88.936C260.89 88.552 260.71 88.02 260.71 87.34C260.71 86.924 260.77 86.54 260.89 86.188C261.018 85.828 261.19 85.52 261.406 85.264C261.63 85 261.89 84.796 262.186 84.652C262.49 84.5 262.818 84.424 263.17 84.424C263.898 84.424 264.474 84.712 264.898 85.288C265.322 85.864 265.554 86.668 265.594 87.7H266.206V89.14L265.846 89.5H265.438C265.214 90.42 264.77 91.128 264.106 91.624C263.45 92.128 262.574 92.38 261.478 92.38H260.59V90.58ZM261.91 87.1C261.91 87.316 261.998 87.472 262.174 87.568C262.35 87.656 262.59 87.7 262.894 87.7H264.394V87.664C264.394 87.232 264.262 86.884 263.998 86.62C263.742 86.356 263.414 86.224 263.014 86.224C262.702 86.224 262.438 86.308 262.222 86.476C262.014 86.636 261.91 86.844 261.91 87.1ZM265.847 88.06L266.207 87.7H266.219C266.595 87.7 266.879 87.656 267.071 87.568C267.263 87.472 267.415 87.308 267.527 87.076L267.995 86.104L269.183 86.68L268.763 87.568C268.955 87.656 269.151 87.728 269.351 87.784C269.551 87.84 269.755 87.868 269.963 87.868C270.307 87.868 270.555 87.796 270.707 87.652C270.859 87.5 270.935 87.236 270.935 86.86V86.104H272.255V86.86C272.255 87.196 272.303 87.44 272.399 87.592C272.495 87.744 272.671 87.82 272.927 87.82H273.047C273.255 87.82 273.419 87.744 273.539 87.592C273.667 87.44 273.731 87.196 273.731 86.86V85.624H275.051V86.86C275.051 87.42 275.331 87.7 275.891 87.7H276.371V89.14L276.011 89.5C275.403 89.5 274.939 89.38 274.619 89.14C274.307 88.892 274.107 88.504 274.019 87.976H273.947C273.899 88.552 273.755 88.976 273.515 89.248C273.275 89.512 272.955 89.644 272.555 89.644C272.131 89.644 271.803 89.512 271.571 89.248C271.339 88.976 271.179 88.552 271.091 87.976H271.019C270.955 88.552 270.811 88.976 270.587 89.248C270.371 89.512 270.083 89.644 269.723 89.644C269.491 89.644 269.259 89.6 269.027 89.512C268.803 89.432 268.507 89.284 268.139 89.068L267.899 88.924C267.651 89.156 267.367 89.312 267.047 89.392C266.735 89.464 266.335 89.5 265.847 89.5V88.06ZM276.007 88.06L276.367 87.7H276.715C277.003 87.7 277.239 87.688 277.423 87.664C277.615 87.64 277.767 87.6 277.879 87.544C277.999 87.48 278.079 87.404 278.119 87.316C278.167 87.22 278.191 87.104 278.191 86.968C278.191 86.848 278.179 86.696 278.155 86.512C278.139 86.32 278.103 86.072 278.047 85.768L277.843 84.652L279.151 84.436L279.331 85.552C279.371 85.768 279.403 86.008 279.427 86.272C279.451 86.536 279.463 86.768 279.463 86.968C279.463 87.84 279.247 88.48 278.815 88.888C278.391 89.296 277.691 89.5 276.715 89.5H276.007V88.06ZM279.139 83.476C278.931 83.476 278.759 83.412 278.623 83.284C278.495 83.156 278.431 82.952 278.431 82.672C278.431 82.392 278.495 82.188 278.623 82.06C278.759 81.932 278.931 81.868 279.139 81.868H279.379C279.587 81.868 279.755 81.932 279.883 82.06C280.019 82.188 280.087 82.392 280.087 82.672C280.087 82.952 280.019 83.156 279.883 83.284C279.755 83.412 279.587 83.476 279.379 83.476H279.139ZM277.243 83.476C277.035 83.476 276.863 83.412 276.727 83.284C276.599 83.156 276.535 82.952 276.535 82.672C276.535 82.392 276.599 82.188 276.727 82.06C276.863 81.932 277.035 81.868 277.243 81.868H277.483C277.691 81.868 277.859 81.932 277.987 82.06C278.123 82.188 278.191 82.392 278.191 82.672C278.191 82.952 278.123 83.156 277.987 83.284C277.859 83.412 277.691 83.476 277.483 83.476H277.243Z" fill="#FEFEFE"/>
</g>
</g>
<defs>
<filter id="filter0_d_5980_8753" x="210.48" y="70.5" width="89.75" height="32" filterUnits="userSpaceOnUse" color-interpolation-filters="sRGB">
<feFlood flood-opacity="0" result="BackgroundImageFix"/>
<feColorMatrix in="SourceAlpha" type="matrix" values="0 0 0 0 0 0 0 0 0 0 0 0 0 0 0 0 0 0 127 0" result="hardAlpha"/>
<feOffset dy="1"/>
<feGaussianBlur stdDeviation="1"/>
<feComposite in2="hardAlpha" operator="out"/>
<feColorMatrix type="matrix" values="0 0 0 0 0 0 0 0 0 0 0 0 0 0 0 0 0 0 0.05 0"/>
<feBlend mode="normal" in2="BackgroundImageFix" result="effect1_dropShadow_5980_8753"/>
<feBlend mode="normal" in="SourceGraphic" in2="effect1_dropShadow_5980_8753" result="shape"/>
</filter>
<clipPath id="clip0_5980_8753">
<rect width="342" height="135" rx="16" fill="white"/>
</clipPath>
</defs>
</svg>
