<svg width="139" height="98" viewBox="0 0 139 98" fill="none" xmlns="http://www.w3.org/2000/svg">
<path fill-rule="evenodd" clip-rule="evenodd" d="M124.558 34.4863H14.4434V79.8609C14.4434 82.0257 16.0378 83.9355 18.3679 84.5591C29.4322 87.5122 60.5462 95.8263 67.9195 97.795C68.9502 98.0695 70.0513 98.0695 71.0864 97.795C78.4597 95.8223 109.574 87.5122 120.638 84.5591C122.968 83.9355 124.563 82.0257 124.563 79.8609C124.558 68.4957 124.558 34.4863 124.558 34.4863Z" fill="#A6B3D6"/>
<path fill-rule="evenodd" clip-rule="evenodd" d="M124.558 34.4863H69.5005C69.5005 34.4863 68.9676 97.9989 69.5005 97.9989C70.0335 97.9989 70.5665 97.9283 71.0818 97.7911C78.4551 95.8184 109.569 87.5083 120.633 84.5552C122.963 83.9316 124.558 82.0217 124.558 79.8569C124.558 68.4957 124.558 34.4863 124.558 34.4863Z" fill="#A6B3D6"/>
<path fill-rule="evenodd" clip-rule="evenodd" d="M69.5006 50.389L14.4432 34.4863C14.4432 34.4863 4.7883 47.232 0.471795 52.9303C-0.0127101 53.5695 -0.131634 54.3735 0.15026 55.099C0.432154 55.8284 1.07963 56.3932 1.90329 56.6324C12.3598 59.6561 43.3197 68.6133 51.4418 70.9624C52.6046 71.2997 53.8819 70.9114 54.5734 70.0055C58.2645 65.1543 69.5006 50.389 69.5006 50.389Z" fill="#C4CFE8"/>
<path fill-rule="evenodd" clip-rule="evenodd" d="M124.557 34.4863L69.5 50.3929C69.5 50.3929 80.7361 65.1543 84.4272 70.0055C85.1143 70.9114 86.3916 71.2997 87.5588 70.9624C95.6809 68.6133 126.641 59.6561 137.097 56.6324C137.921 56.3932 138.568 55.8245 138.85 55.099C139.132 54.3695 139.013 53.5695 138.529 52.9303C134.212 47.232 124.557 34.4863 124.557 34.4863Z" fill="#C4CFE8"/>
<path fill-rule="evenodd" clip-rule="evenodd" d="M56.1711 1.07286C55.484 0.174778 54.2066 -0.217393 53.0438 0.119877C44.9261 2.46508 13.9619 11.4223 3.50095 14.4499C2.67729 14.6891 2.02981 15.2539 1.74792 15.9833C1.46602 16.7128 1.58495 17.5167 2.06945 18.152C6.0468 23.4032 14.4376 34.4822 14.4376 34.4822L69.495 18.5246C69.4994 18.5246 59.6111 5.57501 56.1711 1.07286Z" fill="#C4CFE8"/>
<path fill-rule="evenodd" clip-rule="evenodd" d="M136.924 18.1565C137.409 17.5172 137.527 16.7172 137.246 15.9877C136.964 15.2583 136.316 14.6936 135.493 14.4543C125.036 11.4268 94.0674 2.4695 85.9497 0.1243C84.7869 -0.21297 83.5096 0.17528 82.8224 1.07728C79.3825 5.57944 69.4941 18.529 69.4941 18.529L124.552 34.4866C124.556 34.4866 132.951 23.4077 136.924 18.1565Z" fill="#C4CFE8"/>
<path fill-rule="evenodd" clip-rule="evenodd" d="M124.558 34.4849L69.5008 18.5273L14.4434 34.4849L69.5008 50.3915L124.558 34.4849Z" fill="url(#paint0_linear_6577_26674)"/>
<path fill-rule="evenodd" clip-rule="evenodd" d="M69.5008 50.3895V18.5254L14.4434 34.4869L69.5008 50.3895Z" fill="#A6B3D6"/>
<defs>
<linearGradient id="paint0_linear_6577_26674" x1="69.0276" y1="18.6086" x2="69.4978" y2="58.2226" gradientUnits="userSpaceOnUse">
<stop stop-color="#A6B3D6"/>
<stop offset="1" stop-color="#8DA3BE"/>
</linearGradient>
</defs>
</svg>
