<svg width="140" height="99" viewBox="0 0 140 99" fill="none" xmlns="http://www.w3.org/2000/svg">
<path d="M32.6896 47.7728C30.5335 47.7728 28.6123 46.2298 28.224 44.0225L22.5016 11.7823C22.2257 10.2188 20.8666 9.07428 19.2725 9.07428H4.5371C2.03352 9.07428 0 7.04075 0 4.53714C0 2.03354 2.03352 0 4.5371 0H19.2725C25.2708 0 30.3904 4.29189 31.4429 10.1983L37.1654 42.4386C37.6048 44.9116 35.9596 47.2619 33.4867 47.7013C33.221 47.7524 32.9553 47.7728 32.6896 47.7728Z" fill="#C4CFE8"/>
<path d="M113.582 84.3464L44.9324 88.6792C39.5369 89.0164 34.7342 85.2559 33.794 79.9217L25.5373 33.3956C24.3826 26.876 29.3898 20.9082 36.0115 20.9082H119.028C125.507 20.9082 130.483 26.6512 129.553 33.0686L123.443 75.2619C122.717 80.2385 118.599 84.0297 113.582 84.3464Z" fill="#A6B3D6"/>
<path d="M53.9778 98.407C59.4916 98.407 63.9615 93.9371 63.9615 88.4232C63.9615 82.9093 59.4916 78.4395 53.9778 78.4395C48.464 78.4395 43.9941 82.9093 43.9941 88.4232C43.9941 93.9371 48.464 98.407 53.9778 98.407Z" fill="#C4CFE8"/>
<path d="M53.9751 94.5128C57.3387 94.5128 60.0654 91.7861 60.0654 88.4224C60.0654 85.0588 57.3387 82.332 53.9751 82.332C50.6115 82.332 47.8848 85.0588 47.8848 88.4224C47.8848 91.7861 50.6115 94.5128 53.9751 94.5128Z" fill="#A6B3D6"/>
<path d="M103.954 98.407C109.468 98.407 113.938 93.9371 113.938 88.4232C113.938 82.9093 109.468 78.4395 103.954 78.4395C98.4405 78.4395 93.9707 82.9093 93.9707 88.4232C93.9707 93.9371 98.4405 98.407 103.954 98.407Z" fill="#C4CFE8"/>
<path d="M103.956 94.5128C107.319 94.5128 110.046 91.7861 110.046 88.4224C110.046 85.0588 107.319 82.332 103.956 82.332C100.592 82.332 97.8652 85.0588 97.8652 88.4224C97.8652 91.7861 100.592 94.5128 103.956 94.5128Z" fill="#A6B3D6"/>
<path d="M60.269 67.8542C58.5523 67.8542 57.1523 66.4645 57.1523 64.7375V35.2359C57.1523 33.5191 58.5421 32.1191 60.269 32.1191C61.9858 32.1191 63.3857 33.5089 63.3857 35.2359V64.7477C63.3755 66.4645 61.9858 67.8542 60.269 67.8542Z" fill="#C4CFE8"/>
<path d="M77.4292 67.8542C75.7125 67.8542 74.3125 66.4645 74.3125 64.7375V35.2359C74.3125 33.5191 75.7022 32.1191 77.4292 32.1191C79.1459 32.1191 80.5459 33.5089 80.5459 35.2359V64.7477C80.5459 66.4645 79.1562 67.8542 77.4292 67.8542Z" fill="#C4CFE8"/>
<path d="M94.5933 67.8542C92.8765 67.8542 91.4766 66.4645 91.4766 64.7375V35.2359C91.4766 33.5191 92.8663 32.1191 94.5933 32.1191C96.31 32.1191 97.71 33.5089 97.71 35.2359V64.7477C97.71 66.4645 96.31 67.8542 94.5933 67.8542Z" fill="#C4CFE8"/>
<path d="M125.835 35.1849C133.421 35.1849 139.569 29.036 139.569 21.4508C139.569 13.8657 133.421 7.7168 125.835 7.7168C118.25 7.7168 112.102 13.8657 112.102 21.4508C112.102 29.036 118.25 35.1849 125.835 35.1849Z" fill="#C4CFE8"/>
<path d="M121.41 15.6862C122.34 14.2964 123.852 13.6016 125.926 13.6016C128.001 13.6016 129.513 14.2964 130.443 15.6862C131.373 17.076 131.843 18.9766 131.843 21.3985C131.843 23.8408 131.373 25.7619 130.443 27.1517C129.513 28.5414 128.001 29.2363 125.926 29.2363C123.842 29.2363 122.34 28.5414 121.41 27.1517C120.48 25.7619 120.01 23.8408 120.01 21.3985C120.01 18.9766 120.48 17.076 121.41 15.6862ZM127.848 18.1183C127.541 17.3519 126.897 16.9738 125.926 16.9738C124.956 16.9738 124.322 17.3519 124.005 18.1183C123.699 18.8847 123.545 19.9781 123.545 21.3985C123.545 22.3591 123.597 23.1459 123.719 23.7693C123.832 24.3926 124.056 24.9035 124.404 25.2816C124.751 25.67 125.262 25.8641 125.937 25.8641C126.611 25.8641 127.122 25.67 127.469 25.2816C127.817 24.8933 128.042 24.3926 128.154 23.7693C128.266 23.1459 128.328 22.3488 128.328 21.3985C128.307 19.9781 128.154 18.8847 127.848 18.1183Z" fill="white"/>
</svg>
