<svg width="40" height="40" viewBox="0 0 40 40" fill="none" xmlns="http://www.w3.org/2000/svg">
<rect width="40" height="40" rx="8" fill="#B5E1CB"/>
<path d="M23 10V20C23 21.1 22.1 22 21 22H10V15.62C10.73 16.49 11.85 17.03 13.09 17C14.1 16.98 15.01 16.59 15.69 15.94C16 15.68 16.26 15.35 16.46 14.99C16.82 14.38 17.02 13.66 17 12.91C16.97 11.74 16.45 10.71 15.64 10H23Z" stroke="#064225" stroke-width="1.5" stroke-linecap="round" stroke-linejoin="round"/>
<path d="M30 22V25C30 26.66 28.66 28 27 28H26C26 26.9 25.1 26 24 26C22.9 26 22 26.9 22 28H18C18 26.9 17.1 26 16 26C14.9 26 14 26.9 14 28H13C11.34 28 10 26.66 10 25V22H21C22.1 22 23 21.1 23 20V13H24.84C25.56 13 26.22 13.39 26.58 14.01L28.29 17H27C26.45 17 26 17.45 26 18V21C26 21.55 26.45 22 27 22H30Z" stroke="#064225" stroke-width="1.5" stroke-linecap="round" stroke-linejoin="round"/>
<path d="M16 30C17.1046 30 18 29.1046 18 28C18 26.8954 17.1046 26 16 26C14.8954 26 14 26.8954 14 28C14 29.1046 14.8954 30 16 30Z" stroke="#064225" stroke-width="1.5" stroke-linecap="round" stroke-linejoin="round"/>
<path d="M24 30C25.1046 30 26 29.1046 26 28C26 26.8954 25.1046 26 24 26C22.8954 26 22 26.8954 22 28C22 29.1046 22.8954 30 24 30Z" stroke="#064225" stroke-width="1.5" stroke-linecap="round" stroke-linejoin="round"/>
<path d="M30 20V22H27C26.45 22 26 21.55 26 21V18C26 17.45 26.45 17 27 17H28.29L30 20Z" stroke="#064225" stroke-width="1.5" stroke-linecap="round" stroke-linejoin="round"/>
<path d="M17.0002 12.9097C17.0202 13.6597 16.8202 14.3798 16.4602 14.9898C16.2602 15.3498 16.0002 15.6798 15.6902 15.9398C15.0102 16.5898 14.1002 16.9798 13.0902 16.9998C11.8502 17.0298 10.7302 16.4898 10.0002 15.6198C9.86017 15.4698 9.74018 15.2998 9.63018 15.1298C9.24018 14.5398 9.02017 13.8398 9.00017 13.0898C8.97017 11.8298 9.53016 10.6798 10.4302 9.92977C11.1102 9.36977 11.9701 9.01978 12.9101 8.99978C13.9601 8.97978 14.9202 9.35978 15.6402 9.99978C16.4502 10.7098 16.9702 11.7397 17.0002 12.9097Z" stroke="#064225" stroke-width="1.5" stroke-miterlimit="10" stroke-linecap="round" stroke-linejoin="round"/>
<path d="M11.4404 13.0298L12.4504 13.9897L14.5404 11.9697" stroke="#064225" stroke-width="1.5" stroke-linecap="round" stroke-linejoin="round"/>
</svg>
