<svg width="24" height="20" viewBox="0 0 24 20" fill="none" xmlns="http://www.w3.org/2000/svg">
<g clip-path="url(#clip0_7371_25586)">
<path d="M13.9861 10.798C13.9671 10.8027 13.8909 10.8027 13.8576 10.8027H11.4004V11.3719H13.9004C13.9195 11.3719 14.0671 11.3719 14.0956 11.3671C14.6052 11.3197 14.8385 10.8976 14.8385 10.5277C14.8385 10.1482 14.5956 9.74037 14.1337 9.69769C14.0433 9.6882 13.9671 9.6882 13.9337 9.6882H12.3004C12.229 9.6882 12.148 9.68346 12.1195 9.67397C11.9909 9.64078 11.9433 9.52695 11.9433 9.4321C11.9433 9.34673 11.9909 9.2329 12.1242 9.19496C12.1623 9.18548 12.2052 9.18073 12.2956 9.18073H14.6528V8.62109H12.2576C12.1576 8.62109 12.0814 8.62584 12.0195 8.63532C11.6099 8.69223 11.3242 9.01948 11.3242 9.43684C11.3242 9.77831 11.5385 10.1767 12.0099 10.2431C12.0956 10.2526 12.2147 10.2526 12.2671 10.2526H13.8576C13.8861 10.2526 13.9576 10.2526 13.9718 10.2573C14.1528 10.281 14.2147 10.4138 14.2147 10.5324C14.2147 10.6462 14.1433 10.7695 13.9861 10.798Z" fill="black"/>
<path d="M9.32987 10.798C9.31083 10.8027 9.23464 10.8027 9.20606 10.8027H6.74416V11.3719H9.24416C9.26321 11.3719 9.41083 11.3719 9.4394 11.3671C9.94892 11.3197 10.1823 10.8976 10.1823 10.5277C10.1823 10.1482 9.9394 9.74037 9.47749 9.69769C9.38702 9.6882 9.31083 9.6882 9.27749 9.6882H7.64416C7.57273 9.6882 7.49178 9.68346 7.46321 9.67397C7.33464 9.64078 7.28702 9.52695 7.28702 9.4321C7.28702 9.34673 7.33464 9.2329 7.46797 9.19496C7.50606 9.18548 7.54892 9.18073 7.6394 9.18073H9.99654V8.62109H7.6013C7.5013 8.62109 7.42511 8.62584 7.36321 8.63532C6.95368 8.69223 6.66797 9.01948 6.66797 9.43684C6.66797 9.77831 6.88225 10.1767 7.35368 10.2431C7.4394 10.2526 7.55845 10.2526 7.61083 10.2526H9.2013C9.22987 10.2526 9.3013 10.2526 9.31559 10.2573C9.49654 10.281 9.55844 10.4138 9.55844 10.5324C9.55844 10.6462 9.49178 10.7695 9.32987 10.798Z" fill="black"/>
<path d="M5.4628 8.60156H4.84375V11.3855H5.4628V8.60156Z" fill="black"/>
<path d="M3.47619 11.3855V8.60156H2.85714V10.6789L0.795238 8.60156H0V11.3855H0.619048V9.29874L2.69524 11.3855H3.47619Z" fill="black"/>
<path d="M23.3845 8.60156V10.6789L21.3226 8.60156H20.5273V11.3855H21.1464V9.29874L23.2178 11.3855H23.9988V8.60156H23.3845Z" fill="black"/>
<path d="M17.3054 8.60156L15.5625 11.3855H16.3149L16.6244 10.8875H18.6577L18.9673 11.3855H19.7149L17.972 8.60156H17.3054ZM18.3387 10.3611H16.9435L17.6435 9.24183L18.3387 10.3611Z" fill="black"/>
<path d="M3.44122 7.02395C4.68884 3.39578 8.12693 0.958027 12.0031 0.958027C15.8793 0.958027 19.3222 3.39578 20.565 7.02395L20.5746 7.05241H23.3031V6.72516L22.1698 6.59236C21.4698 6.51174 21.3222 6.20346 21.1317 5.81456L21.0841 5.71971C19.446 2.24804 15.8793 0 12.0031 0C8.12217 0 4.56027 2.24804 2.92217 5.72919L2.87455 5.82405C2.68408 6.21295 2.53646 6.52122 1.83646 6.60185L0.703125 6.73465V7.06189H3.42693L3.44122 7.02395Z" fill="black"/>
<path d="M20.5776 12.9422L20.5681 12.9707C19.3205 16.5989 15.8824 19.0319 12.0062 19.0319C8.12999 19.0319 4.68713 16.5941 3.44427 12.966L3.43475 12.9375H0.710938V13.2647L1.84427 13.3975C2.54427 13.4782 2.69189 13.7864 2.88237 14.1753L2.92999 14.2702C4.56808 17.7513 8.13475 19.9994 12.0109 19.9994C15.8871 19.9994 19.4538 17.7513 21.0919 14.2749L21.1395 14.1801C21.33 13.7912 21.4776 13.4829 22.1776 13.4023L23.3109 13.2695V12.9422H20.5776Z" fill="black"/>
</g>
<defs>
<clipPath id="clip0_7371_25586">
<rect width="24" height="20" fill="white"/>
</clipPath>
</defs>
</svg>
