<svg width="116" height="109" viewBox="0 0 116 109" fill="none" xmlns="http://www.w3.org/2000/svg">
<path d="M14.0672 9.16602C10.4029 9.16602 7.42188 12.1352 7.42188 15.8114V102.354C7.42188 106.018 10.3911 108.999 14.0672 108.999H78.718C82.3823 108.999 85.3633 106.03 85.3633 102.354V39.4471C85.3633 36.2305 84.0908 33.1552 81.8168 30.8812L63.6481 12.7126C61.3741 10.4385 58.2988 9.16602 55.0822 9.16602H14.0672Z" fill="#A6B3D6"/>
<path d="M6.93991 0C3.11058 0 0 3.11059 0 6.93991V97.3355C0 101.165 3.11058 104.275 6.93991 104.275H74.4774C78.3067 104.275 81.4173 101.165 81.4173 97.3355V31.6361C81.4173 28.2781 80.0859 25.0614 77.7176 22.6932L58.7359 3.7115C56.3676 1.34321 53.151 0.0117797 49.793 0.0117797H6.93991V0Z" fill="#C4CFE8"/>
<path d="M55.0352 21.1022C55.0352 24.0243 57.4034 26.3925 60.3255 26.3925H80.2969C79.6724 25.0258 78.8123 23.765 77.7283 22.6928L58.7467 3.71117C57.6627 2.62718 56.4019 1.76705 55.0469 1.14258V21.1022H55.0352Z" fill="#A6B3D6"/>
<path d="M73.3017 38.5294C72.8186 38.5294 72.418 38.1288 72.418 37.6457V34.7001C72.418 34.217 72.8186 33.8164 73.3017 33.8164C73.7847 33.8164 74.1853 34.217 74.1853 34.7001V37.6457C74.1853 38.1288 73.7847 38.5294 73.3017 38.5294Z" fill="#A6B3D6"/>
<path d="M64.7094 97.029H58.8771C58.394 97.029 57.9934 96.6284 57.9934 96.1453C57.9934 95.6622 58.394 95.2616 58.8771 95.2616H64.7094C65.1925 95.2616 65.5931 95.6622 65.5931 96.1453C65.5931 96.6284 65.1925 97.029 64.7094 97.029ZM53.033 97.029H47.2006C46.7175 97.029 46.3169 96.6284 46.3169 96.1453C46.3169 95.6622 46.7175 95.2616 47.2006 95.2616H53.033C53.516 95.2616 53.9166 95.6622 53.9166 96.1453C53.9166 96.6284 53.5278 97.029 53.033 97.029ZM41.3682 97.029H35.5359C35.0528 97.029 34.6522 96.6284 34.6522 96.1453C34.6522 95.6622 35.0528 95.2616 35.5359 95.2616H41.3682C41.8513 95.2616 42.2519 95.6622 42.2519 96.1453C42.2519 96.6284 41.8631 97.029 41.3682 97.029ZM29.7035 97.029H23.8712C23.3881 97.029 22.9875 96.6284 22.9875 96.1453C22.9875 95.6622 23.3881 95.2616 23.8712 95.2616H29.7035C30.1866 95.2616 30.5872 95.6622 30.5872 96.1453C30.5872 96.6284 30.1866 97.029 29.7035 97.029ZM18.0388 97.029H14.9518C13.9032 97.029 12.8899 96.8169 11.9355 96.4163C11.4877 96.2278 11.2757 95.7093 11.4642 95.2616C11.6527 94.8139 12.1711 94.6018 12.6189 94.7903C13.3494 95.1084 14.1388 95.2616 14.94 95.2616H18.0271C18.5101 95.2616 18.9107 95.6622 18.9107 96.1453C18.9107 96.6284 18.5219 97.029 18.0388 97.029ZM70.3061 95.8625C70.0234 95.8625 69.7406 95.7211 69.5756 95.4737C69.3046 95.0731 69.4107 94.5193 69.8113 94.2483C71.237 93.2821 72.1678 91.7504 72.3799 90.0419C72.4388 89.5589 72.8747 89.2054 73.3578 89.2643C73.8409 89.3232 74.1944 89.7592 74.1355 90.2422C73.8763 92.4574 72.6626 94.4368 70.8128 95.6975C70.6478 95.8036 70.4711 95.8625 70.3061 95.8625ZM8.45963 92.3042C8.08259 92.3042 7.7409 92.0685 7.62308 91.6915C7.37564 90.9256 7.25781 90.1362 7.25781 89.3232V85.6235C7.25781 85.1404 7.65842 84.7398 8.1415 84.7398C8.62459 84.7398 9.02519 85.1404 9.02519 85.6235V89.3232C9.02519 89.9477 9.11946 90.5604 9.30798 91.1495C9.46115 91.609 9.20193 92.1157 8.74242 92.2571C8.64816 92.2924 8.55389 92.3042 8.45963 92.3042ZM73.2989 85.1993C72.8158 85.1993 72.4152 84.7987 72.4152 84.3156V78.4833C72.4152 78.0002 72.8158 77.5996 73.2989 77.5996C73.782 77.5996 74.1826 78.0002 74.1826 78.4833V84.3156C74.1826 84.7987 73.782 85.1993 73.2989 85.1993ZM8.1415 80.6748C7.65842 80.6748 7.25781 80.2742 7.25781 79.7911V73.9588C7.25781 73.4757 7.65842 73.0751 8.1415 73.0751C8.62459 73.0751 9.02519 73.4757 9.02519 73.9588V79.7911C9.02519 80.286 8.62459 80.6748 8.1415 80.6748ZM73.2989 73.5346C72.8158 73.5346 72.4152 73.134 72.4152 72.6509V66.8186C72.4152 66.3355 72.8158 65.9349 73.2989 65.9349C73.782 65.9349 74.1826 66.3355 74.1826 66.8186V72.6509C74.1826 73.134 73.782 73.5346 73.2989 73.5346ZM8.1415 69.0101C7.65842 69.0101 7.25781 68.6095 7.25781 68.1264V62.2941C7.25781 61.811 7.65842 61.4104 8.1415 61.4104C8.62459 61.4104 9.02519 61.811 9.02519 62.2941V68.1264C9.02519 68.6095 8.62459 69.0101 8.1415 69.0101ZM73.2989 61.8581C72.8158 61.8581 72.4152 61.4575 72.4152 60.9744V55.1421C72.4152 54.659 72.8158 54.2584 73.2989 54.2584C73.782 54.2584 74.1826 54.659 74.1826 55.1421V60.9744C74.1826 61.4693 73.782 61.8581 73.2989 61.8581ZM8.1415 57.3454C7.65842 57.3454 7.25781 56.9448 7.25781 56.4617V50.6294C7.25781 50.1463 7.65842 49.7457 8.1415 49.7457C8.62459 49.7457 9.02519 50.1463 9.02519 50.6294V56.4617C9.02519 56.9448 8.62459 57.3454 8.1415 57.3454ZM73.2989 50.1934C72.8158 50.1934 72.4152 49.7928 72.4152 49.3097V43.4774C72.4152 42.9943 72.8158 42.5937 73.2989 42.5937C73.782 42.5937 74.1826 42.9943 74.1826 43.4774V49.3097C74.1826 49.8046 73.782 50.1934 73.2989 50.1934ZM8.1415 45.6807C7.65842 45.6807 7.25781 45.2801 7.25781 44.797V38.9647C7.25781 38.4816 7.65842 38.081 8.1415 38.081C8.62459 38.081 9.02519 38.4816 9.02519 38.9647V44.797C9.02519 45.2801 8.62459 45.6807 8.1415 45.6807ZM8.1415 34.0042C7.65842 34.0042 7.25781 33.6036 7.25781 33.1205V27.2882C7.25781 26.8051 7.65842 26.4045 8.1415 26.4045C8.62459 26.4045 9.02519 26.8051 9.02519 27.2882V33.1205C9.02519 33.6154 8.62459 34.0042 8.1415 34.0042ZM8.1415 22.3395C7.65842 22.3395 7.25781 21.9389 7.25781 21.4558V15.6235C7.25781 15.1404 7.65842 14.7398 8.1415 14.7398C8.62459 14.7398 9.02519 15.1404 9.02519 15.6235V21.4558C9.02519 21.9507 8.62459 22.3395 8.1415 22.3395ZM9.99136 11.1579C9.77928 11.1579 9.55541 11.0754 9.39046 10.9222C9.03698 10.5923 9.01341 10.0268 9.3551 9.67329C10.8044 8.14156 12.8427 7.25787 14.9518 7.25787H15.2346C15.7177 7.25787 16.1183 7.65848 16.1183 8.14156C16.1183 8.62465 15.7177 9.02525 15.2346 9.02525H14.9518C13.3022 9.02525 11.7705 9.68508 10.6394 10.8869C10.4627 11.0636 10.227 11.1579 9.99136 11.1579ZM38.564 9.01347H32.7316C32.2486 9.01347 31.848 8.61287 31.848 8.12978C31.848 7.6467 32.2486 7.24609 32.7316 7.24609H38.564C39.0471 7.24609 39.4477 7.6467 39.4477 8.12978C39.4477 8.61287 39.0471 9.01347 38.564 9.01347ZM26.8993 9.01347H21.0669C20.5839 9.01347 20.1833 8.61287 20.1833 8.12978C20.1833 7.6467 20.5839 7.24609 21.0669 7.24609H26.8993C27.3824 7.24609 27.783 7.6467 27.783 8.12978C27.783 8.61287 27.3824 9.01347 26.8993 9.01347Z" fill="#A6B3D6"/>
<path d="M47.3645 9.01347H44.4188C43.9358 9.01347 43.5352 8.61287 43.5352 8.12978C43.5352 7.6467 43.9358 7.24609 44.4188 7.24609H47.3645C47.8476 7.24609 48.2482 7.6467 48.2482 8.12978C48.2482 8.61287 47.8476 9.01347 47.3645 9.01347Z" fill="#A6B3D6"/>
<path d="M99.7655 53.2298C91.824 43.9805 77.8971 42.9201 68.6478 50.8615C59.3985 58.803 58.3381 72.7299 66.2795 81.9792C72.6067 89.3433 82.7161 91.5113 91.2467 88.0826C92.4014 87.623 93.721 87.9647 94.4987 88.9309L105.645 102.775C107.683 105.309 111.407 105.65 113.869 103.529C116.332 101.409 116.556 97.6853 114.364 95.2817L102.369 82.1795C101.533 81.2605 101.391 79.9055 102.028 78.8333C106.705 70.9154 106.093 60.5821 99.7655 53.2298Z" fill="#A6B3D6"/>
<path d="M94.0077 80.3901C101.068 74.3285 101.877 63.6913 95.8156 56.6313C89.754 49.5712 79.1168 48.7618 72.0568 54.8234C64.9967 60.885 64.1873 71.5221 70.2489 78.5822C76.3105 85.6422 86.9476 86.4517 94.0077 80.3901Z" fill="#E9ECF4"/>
<path d="M72.9031 76.5823C72.8206 76.5823 72.7381 76.5469 72.6792 76.4762C71.8662 75.5336 71.1946 74.4968 70.6762 73.3892C70.6055 73.236 70.6762 73.0711 70.8176 73.0004C70.959 72.9297 71.1357 72.9886 71.2064 73.1418C71.7013 74.2022 72.3493 75.2037 73.1269 76.0992C73.233 76.217 73.2212 76.4055 73.0916 76.5116C73.0445 76.5587 72.9738 76.5823 72.9031 76.5823Z" fill="#C4CFE8"/>
<path d="M69.7906 69.5614C69.6492 69.5614 69.5196 69.4553 69.4961 69.3021C68.9305 64.7423 70.6625 60.2414 74.1502 57.2604C79.8529 52.3589 88.4777 53.0187 93.3793 58.7214C93.4853 58.8393 93.4735 59.0278 93.3439 59.1338C93.2261 59.2399 93.0376 59.2281 92.9315 59.0985C88.2421 53.6432 79.9943 53.0069 74.5272 57.6964C71.2045 60.5595 69.5314 64.8601 70.0734 69.2197C70.097 69.3846 69.9792 69.526 69.8142 69.5496C69.8142 69.5496 69.8024 69.5614 69.7906 69.5614Z" fill="#C4CFE8"/>
<path d="M105.658 102.775C107.696 105.308 111.419 105.65 113.882 103.529C116.344 101.408 116.568 97.685 114.377 95.2814L104.774 84.7949L96.75 91.6877L105.658 102.775Z" fill="#C4CFE8"/>
<path d="M44.4747 52.2747L50.9106 45.123C52.0471 43.861 51.9403 41.9208 50.6846 40.7906C49.4225 39.6604 47.4823 39.7609 46.3521 41.0166L40.3495 47.6848L34.3469 41.0166C33.2104 39.7546 31.2702 39.6541 30.0145 40.7906C28.7587 41.9208 28.6519 43.861 29.7884 45.123L36.2243 52.2747L29.7884 59.4263C28.6582 60.6884 28.7587 62.6286 30.0145 63.7588C30.6047 64.2862 31.333 64.5436 32.0676 64.5436C32.909 64.5436 33.7441 64.1983 34.3469 63.5265L40.3495 56.8583L46.3521 63.5265C46.9612 64.1983 47.7963 64.5436 48.6314 64.5436C49.3597 64.5436 50.0943 64.2862 50.6846 63.7588C51.9403 62.6286 52.0471 60.6884 50.9106 59.4263L44.4747 52.2747Z" fill="#FEFEFE"/>
</svg>
