<svg width="138" height="109" viewBox="0 0 138 109" fill="none" xmlns="http://www.w3.org/2000/svg">
<path d="M109.185 94.1756H29.7597C25.017 94.1756 21.1777 90.3363 21.1777 85.5936V16.4296C21.1777 11.687 25.017 7.84766 29.7597 7.84766H109.185C113.928 7.84766 117.767 11.687 117.767 16.4296V85.5936C117.767 90.3363 113.914 94.1756 109.185 94.1756Z" fill="#91A2C6"/>
<path d="M90.2146 108.377L7.65542 95.6308C2.72925 94.8686 -0.644255 90.253 0.103846 85.3268L11.2124 13.4386C11.9746 8.51246 16.5903 5.13895 21.5164 5.88705L104.076 18.633C109.002 19.3952 112.375 24.0108 111.627 28.937L100.533 100.825C99.7423 105.765 95.1408 109.139 90.2146 108.377Z" fill="#C4CFE8"/>
<path d="M104.063 18.6464L21.5034 5.90043C16.5773 5.13821 11.9616 8.51172 11.1994 13.452L9.57617 23.9819L109.977 39.4802L111.6 28.9504C112.362 24.0101 108.989 19.3945 104.063 18.6464Z" fill="#A6B3D6"/>
<path d="M93.9549 55.7816C93.7714 55.7816 93.5879 55.7675 93.4185 55.7392L20.8528 44.5318C18.9332 44.2354 17.6063 42.4287 17.9027 40.509C18.1992 38.5894 20.0059 37.2626 21.9255 37.559L94.4913 48.7664C96.4109 49.0628 97.7377 50.8695 97.4413 52.7892C97.159 54.5253 95.6628 55.7816 93.9549 55.7816Z" fill="#E9ECF4"/>
<path d="M91.4978 72.9339C91.3143 72.9339 91.1308 72.9198 90.9615 72.8916L18.3958 61.6842C16.4761 61.3878 15.1493 59.581 15.4457 57.6614C15.7421 55.7417 17.5489 54.4149 19.4685 54.7113L92.0342 65.9187C93.9539 66.2151 95.2807 68.0219 94.9843 69.9415C94.702 71.6777 93.2058 72.9339 91.4978 72.9339Z" fill="#E9ECF4"/>
<path d="M60.1065 84.3511C59.923 84.3511 59.7395 84.337 59.5701 84.3088L16.138 77.6041C14.2183 77.3077 12.8915 75.501 13.1879 73.5813C13.4843 71.6617 15.2911 70.3348 17.2107 70.6313L60.6429 77.3359C62.5625 77.6323 63.8893 79.4391 63.5929 81.3587C63.3106 83.109 61.8144 84.3511 60.1065 84.3511Z" fill="#E9ECF4"/>
<path d="M117.767 39.0141C128.54 39.0141 137.274 30.2805 137.274 19.5071C137.274 8.73361 128.54 0 117.767 0C106.993 0 98.2598 8.73361 98.2598 19.5071C98.2598 30.2805 106.993 39.0141 117.767 39.0141Z" fill="#C4CFE8"/>
<path d="M111.473 11.3196C112.799 9.34353 114.945 8.35547 117.895 8.35547C120.845 8.35547 122.991 9.34353 124.317 11.3196C125.644 13.2958 126.308 16.0059 126.308 19.4358C126.308 22.9081 125.644 25.6324 124.317 27.6085C122.991 29.5846 120.845 30.5726 117.895 30.5726C114.945 30.5726 112.799 29.5846 111.473 27.6085C110.146 25.6324 109.482 22.9081 109.482 19.4358C109.482 16.0059 110.146 13.2958 111.473 11.3196ZM120.633 14.7778C120.196 13.691 119.292 13.1405 117.909 13.1405C116.526 13.1405 115.622 13.691 115.185 14.7778C114.747 15.8647 114.522 17.4174 114.522 19.4358C114.522 20.7909 114.606 21.9201 114.761 22.8093C114.917 23.6986 115.241 24.4185 115.735 24.9689C116.229 25.5194 116.949 25.7876 117.909 25.7876C118.869 25.7876 119.589 25.5194 120.083 24.9689C120.577 24.4185 120.902 23.6986 121.057 22.8093C121.212 21.9201 121.297 20.7909 121.297 19.4358C121.283 17.4174 121.071 15.8647 120.633 14.7778Z" fill="#A6B3D6"/>
</svg>
