<svg width="16" height="16" viewBox="0 0 16 16" fill="none" xmlns="http://www.w3.org/2000/svg">
<path d="M9.0918 2.95055C9.62422 2.37069 9.95018 2.09897 10.5745 1.729V10.0078L14.2656 9.24821C14.225 9.61567 14.1856 9.77173 14.1142 10.0386C14.0427 10.3055 13.9751 10.5264 13.8427 10.8239L9.0918 11.8145V2.95055Z" fill="#060D13"/>
<path d="M7.63086 1C6.8634 1.44132 6.73288 1.60564 6.14965 2.19069V11.3113L2.14904 12.1582C1.92977 12.538 1.71049 13.7082 1.72616 13.7288C1.74182 13.7493 5.94827 12.8254 6.07507 12.8254C6.32096 12.7125 6.47707 12.6458 6.64413 12.4456C6.8112 12.2454 7.03047 11.9118 7.03047 11.9118L7.45335 11.2754C7.58082 11.0958 7.62229 10.9875 7.63086 10.7775V1Z" fill="#060D13"/>
<path d="M2.85157 8.78025L14.274 6.36401C14.1617 7.07089 14.0631 7.42051 13.8302 7.96614L2.42871 10.3824C2.50951 9.77895 2.57424 9.43581 2.85157 8.78025Z" fill="#060D13"/>
<path d="M9.51333 13.3768L14.2686 12.3955C14.1778 13.0562 14.0872 13.4083 13.8406 13.9979L9.08008 15C9.18729 14.372 9.28364 14.0194 9.51333 13.3768Z" fill="#060D13"/>
</svg>
